# SportsCar2-style coupe — generated by tools/gen-car-model.mjs (self-made, no license needed)
mtllib SportsCar2.mtl
g body
usemtl paint
v -0.72 1.2 2.2
v -0.6624 1.18 2.2
v -0.7544 1.21 2.05
v -0.82 1.23 2.05
v -0.6624 1.18 2.2
v -0.396 1.018 2.2
v -0.451 1.0375 2.05
v -0.7544 1.21 2.05
v -0.396 1.018 2.2
v -0.252 0.58 2.2
v -0.287 0.58 2.05
v -0.451 1.0375 2.05
v -0.252 0.58 2.2
v 0.252 0.58 2.2
v 0.287 0.58 2.05
v -0.287 0.58 2.05
v 0.252 0.58 2.2
v 0.396 1.018 2.2
v 0.451 1.0375 2.05
v 0.287 0.58 2.05
v 0.396 1.018 2.2
v 0.6624 1.18 2.2
v 0.7544 1.21 2.05
v 0.451 1.0375 2.05
v 0.6624 1.18 2.2
v 0.72 1.2 2.2
v 0.82 1.23 2.05
v 0.7544 1.21 2.05
v 0.72 1.2 2.2
v -0.72 1.2 2.2
v -0.82 1.23 2.05
v 0.82 1.23 2.05
v -0.82 1.23 2.05
v -0.7544 1.21 2.05
v -0.8464 1.28 1.8
v -0.92 1.3 1.8
v -0.7544 1.21 2.05
v -0.451 1.0375 2.05
v -0.506 1.083 1.8
v -0.8464 1.28 1.8
v -0.451 1.0375 2.05
v -0.287 0.58 2.05
v -0.322 0.58 1.8
v -0.506 1.083 1.8
v -0.287 0.58 2.05
v 0.287 0.58 2.05
v 0.322 0.58 1.8
v -0.322 0.58 1.8
v 0.287 0.58 2.05
v 0.451 1.0375 2.05
v 0.506 1.083 1.8
v 0.322 0.58 1.8
v 0.451 1.0375 2.05
v 0.7544 1.21 2.05
v 0.8464 1.28 1.8
v 0.506 1.083 1.8
v 0.7544 1.21 2.05
v 0.82 1.23 2.05
v 0.92 1.3 1.8
v 0.8464 1.28 1.8
v 0.82 1.23 2.05
v -0.82 1.23 2.05
v -0.92 1.3 1.8
v 0.92 1.3 1.8
v -0.92 1.3 1.8
v -0.8464 1.28 1.8
v -0.8924 1.36 1.47
v -0.97 1.38 1.47
v -0.8464 1.28 1.8
v -0.506 1.083 1.8
v -0.5335 1.135 1.47
v -0.8924 1.36 1.47
v -0.506 1.083 1.8
v -0.322 0.58 1.8
v -0.3395 0.58 1.47
v -0.5335 1.135 1.47
v -0.322 0.58 1.8
v 0.322 0.58 1.8
v 0.3395 0.58 1.47
v -0.3395 0.58 1.47
v 0.322 0.58 1.8
v 0.506 1.083 1.8
v 0.5335 1.135 1.47
v 0.3395 0.58 1.47
v 0.506 1.083 1.8
v 0.8464 1.28 1.8
v 0.8924 1.36 1.47
v 0.5335 1.135 1.47
v 0.8464 1.28 1.8
v 0.92 1.3 1.8
v 0.97 1.38 1.47
v 0.8924 1.36 1.47
v 0.92 1.3 1.8
v -0.92 1.3 1.8
v -0.97 1.38 1.47
v 0.97 1.38 1.47
v -0.97 1.38 1.47
v -0.8924 1.36 1.47
v -0.8924 1.44 1.1
v -0.97 1.46 1.1
v -0.8924 1.36 1.47
v -0.5335 1.135 1.47
v -0.5335 1.187 1.1
v -0.8924 1.44 1.1
v -0.5335 1.135 1.47
v -0.3395 0.58 1.47
v -0.3395 0.58 1.1
v -0.5335 1.187 1.1
v -0.3395 0.58 1.47
v 0.3395 0.58 1.47
v 0.3395 0.58 1.1
v -0.3395 0.58 1.1
v 0.3395 0.58 1.47
v 0.5335 1.135 1.47
v 0.5335 1.187 1.1
v 0.3395 0.58 1.1
v 0.5335 1.135 1.47
v 0.8924 1.36 1.47
v 0.8924 1.44 1.1
v 0.5335 1.187 1.1
v 0.8924 1.36 1.47
v 0.97 1.38 1.47
v 0.97 1.46 1.1
v 0.8924 1.44 1.1
v 0.97 1.38 1.47
v -0.97 1.38 1.47
v -0.97 1.46 1.1
v 0.97 1.46 1.1
v -0.97 1.46 1.1
v -0.8924 1.44 1.1
v -0.874 1.52 0.7
v -0.95 1.54 0.7
v -0.8924 1.44 1.1
v -0.5335 1.187 1.1
v -0.5225 1.239 0.7
v -0.874 1.52 0.7
v -0.5335 1.187 1.1
v -0.3395 0.58 1.1
v -0.3325 0.58 0.7
v -0.5225 1.239 0.7
v -0.3395 0.58 1.1
v 0.3395 0.58 1.1
v 0.3325 0.58 0.7
v -0.3325 0.58 0.7
v 0.3395 0.58 1.1
v 0.5335 1.187 1.1
v 0.5225 1.239 0.7
v 0.3325 0.58 0.7
v 0.5335 1.187 1.1
v 0.8924 1.44 1.1
v 0.874 1.52 0.7
v 0.5225 1.239 0.7
v 0.8924 1.44 1.1
v 0.97 1.46 1.1
v 0.95 1.54 0.7
v 0.874 1.52 0.7
v 0.97 1.46 1.1
v -0.97 1.46 1.1
v -0.95 1.54 0.7
v 0.95 1.54 0.7
v -0.95 1.54 0.7
v -0.874 1.52 0.7
v -0.8464 1.59 0.3
v -0.92 1.61 0.3
v -0.874 1.52 0.7
v -0.5225 1.239 0.7
v -0.506 1.2845 0.3
v -0.8464 1.59 0.3
v -0.5225 1.239 0.7
v -0.3325 0.58 0.7
v -0.322 0.58 0.3
v -0.506 1.2845 0.3
v -0.3325 0.58 0.7
v 0.3325 0.58 0.7
v 0.322 0.58 0.3
v -0.322 0.58 0.3
v 0.3325 0.58 0.7
v 0.5225 1.239 0.7
v 0.506 1.2845 0.3
v 0.322 0.58 0.3
v 0.5225 1.239 0.7
v 0.874 1.52 0.7
v 0.8464 1.59 0.3
v 0.506 1.2845 0.3
v 0.874 1.52 0.7
v 0.95 1.54 0.7
v 0.92 1.61 0.3
v 0.8464 1.59 0.3
v 0.95 1.54 0.7
v -0.95 1.54 0.7
v -0.92 1.61 0.3
v 0.92 1.61 0.3
v -0.92 1.61 0.3
v -0.8464 1.59 0.3
v -0.828 1.63 -0.1
v -0.9 1.65 -0.1
v -0.8464 1.59 0.3
v -0.506 1.2845 0.3
v -0.495 1.3105 -0.1
v -0.828 1.63 -0.1
v -0.506 1.2845 0.3
v -0.322 0.58 0.3
v -0.315 0.58 -0.1
v -0.495 1.3105 -0.1
v -0.322 0.58 0.3
v 0.322 0.58 0.3
v 0.315 0.58 -0.1
v -0.315 0.58 -0.1
v 0.322 0.58 0.3
v 0.506 1.2845 0.3
v 0.495 1.3105 -0.1
v 0.315 0.58 -0.1
v 0.506 1.2845 0.3
v 0.8464 1.59 0.3
v 0.828 1.63 -0.1
v 0.495 1.3105 -0.1
v 0.8464 1.59 0.3
v 0.92 1.61 0.3
v 0.9 1.65 -0.1
v 0.828 1.63 -0.1
v 0.92 1.61 0.3
v -0.92 1.61 0.3
v -0.9 1.65 -0.1
v 0.9 1.65 -0.1
v -0.9 1.65 -0.1
v -0.828 1.63 -0.1
v -0.828 1.63 -0.55
v -0.9 1.65 -0.55
v -0.828 1.63 -0.1
v -0.495 1.3105 -0.1
v -0.495 1.3105 -0.55
v -0.828 1.63 -0.55
v -0.495 1.3105 -0.1
v -0.315 0.58 -0.1
v -0.315 0.58 -0.55
v -0.495 1.3105 -0.55
v -0.315 0.58 -0.1
v 0.315 0.58 -0.1
v 0.315 0.58 -0.55
v -0.315 0.58 -0.55
v 0.315 0.58 -0.1
v 0.495 1.3105 -0.1
v 0.495 1.3105 -0.55
v 0.315 0.58 -0.55
v 0.495 1.3105 -0.1
v 0.828 1.63 -0.1
v 0.828 1.63 -0.55
v 0.495 1.3105 -0.55
v 0.828 1.63 -0.1
v 0.9 1.65 -0.1
v 0.9 1.65 -0.55
v 0.828 1.63 -0.55
v 0.9 1.65 -0.1
v -0.9 1.65 -0.1
v -0.9 1.65 -0.55
v 0.9 1.65 -0.55
v -0.9 1.65 -0.55
v -0.828 1.63 -0.55
v -0.8556 1.58 -0.95
v -0.93 1.6 -0.95
v -0.828 1.63 -0.55
v -0.495 1.3105 -0.55
v -0.5115 1.278 -0.95
v -0.8556 1.58 -0.95
v -0.495 1.3105 -0.55
v -0.315 0.58 -0.55
v -0.3255 0.58 -0.95
v -0.5115 1.278 -0.95
v -0.315 0.58 -0.55
v 0.315 0.58 -0.55
v 0.3255 0.58 -0.95
v -0.3255 0.58 -0.95
v 0.315 0.58 -0.55
v 0.495 1.3105 -0.55
v 0.5115 1.278 -0.95
v 0.3255 0.58 -0.95
v 0.495 1.3105 -0.55
v 0.828 1.63 -0.55
v 0.8556 1.58 -0.95
v 0.5115 1.278 -0.95
v 0.828 1.63 -0.55
v 0.9 1.65 -0.55
v 0.93 1.6 -0.95
v 0.8556 1.58 -0.95
v 0.9 1.65 -0.55
v -0.9 1.65 -0.55
v -0.93 1.6 -0.95
v 0.93 1.6 -0.95
v -0.93 1.6 -0.95
v -0.8556 1.58 -0.95
v -0.8832 1.5 -1.35
v -0.96 1.52 -1.35
v -0.8556 1.58 -0.95
v -0.5115 1.278 -0.95
v -0.528 1.226 -1.35
v -0.8832 1.5 -1.35
v -0.5115 1.278 -0.95
v -0.3255 0.58 -0.95
v -0.336 0.58 -1.35
v -0.528 1.226 -1.35
v -0.3255 0.58 -0.95
v 0.3255 0.58 -0.95
v 0.336 0.58 -1.35
v -0.336 0.58 -1.35
v 0.3255 0.58 -0.95
v 0.5115 1.278 -0.95
v 0.528 1.226 -1.35
v 0.336 0.58 -1.35
v 0.5115 1.278 -0.95
v 0.8556 1.58 -0.95
v 0.8832 1.5 -1.35
v 0.528 1.226 -1.35
v 0.8556 1.58 -0.95
v 0.93 1.6 -0.95
v 0.96 1.52 -1.35
v 0.8832 1.5 -1.35
v 0.93 1.6 -0.95
v -0.93 1.6 -0.95
v -0.96 1.52 -1.35
v 0.96 1.52 -1.35
v -0.96 1.52 -1.35
v -0.8832 1.5 -1.35
v -0.8648 1.38 -1.7
v -0.94 1.4 -1.7
v -0.8832 1.5 -1.35
v -0.528 1.226 -1.35
v -0.517 1.148 -1.7
v -0.8648 1.38 -1.7
v -0.528 1.226 -1.35
v -0.336 0.58 -1.35
v -0.329 0.58 -1.7
v -0.517 1.148 -1.7
v -0.336 0.58 -1.35
v 0.336 0.58 -1.35
v 0.329 0.58 -1.7
v -0.329 0.58 -1.7
v 0.336 0.58 -1.35
v 0.528 1.226 -1.35
v 0.517 1.148 -1.7
v 0.329 0.58 -1.7
v 0.528 1.226 -1.35
v 0.8832 1.5 -1.35
v 0.8648 1.38 -1.7
v 0.517 1.148 -1.7
v 0.8832 1.5 -1.35
v 0.96 1.52 -1.35
v 0.94 1.4 -1.7
v 0.8648 1.38 -1.7
v 0.96 1.52 -1.35
v -0.96 1.52 -1.35
v -0.94 1.4 -1.7
v 0.94 1.4 -1.7
v -0.94 1.4 -1.7
v -0.8648 1.38 -1.7
v -0.7912 1.28 -2.05
v -0.86 1.3 -2.05
v -0.8648 1.38 -1.7
v -0.517 1.148 -1.7
v -0.473 1.083 -2.05
v -0.7912 1.28 -2.05
v -0.517 1.148 -1.7
v -0.329 0.58 -1.7
v -0.301 0.58 -2.05
v -0.473 1.083 -2.05
v -0.329 0.58 -1.7
v 0.329 0.58 -1.7
v 0.301 0.58 -2.05
v -0.301 0.58 -2.05
v 0.329 0.58 -1.7
v 0.517 1.148 -1.7
v 0.473 1.083 -2.05
v 0.301 0.58 -2.05
v 0.517 1.148 -1.7
v 0.8648 1.38 -1.7
v 0.7912 1.28 -2.05
v 0.473 1.083 -2.05
v 0.8648 1.38 -1.7
v 0.94 1.4 -1.7
v 0.86 1.3 -2.05
v 0.7912 1.28 -2.05
v 0.94 1.4 -1.7
v -0.94 1.4 -1.7
v -0.86 1.3 -2.05
v 0.86 1.3 -2.05
v -0.86 1.3 -2.05
v -0.7912 1.28 -2.05
v -0.6624 1.22 -2.28
v -0.72 1.24 -2.28
v -0.7912 1.28 -2.05
v -0.473 1.083 -2.05
v -0.396 1.044 -2.28
v -0.6624 1.22 -2.28
v -0.473 1.083 -2.05
v -0.301 0.58 -2.05
v -0.252 0.58 -2.28
v -0.396 1.044 -2.28
v -0.301 0.58 -2.05
v 0.301 0.58 -2.05
v 0.252 0.58 -2.28
v -0.252 0.58 -2.28
v 0.301 0.58 -2.05
v 0.473 1.083 -2.05
v 0.396 1.044 -2.28
v 0.252 0.58 -2.28
v 0.473 1.083 -2.05
v 0.7912 1.28 -2.05
v 0.6624 1.22 -2.28
v 0.396 1.044 -2.28
v 0.7912 1.28 -2.05
v 0.86 1.3 -2.05
v 0.72 1.24 -2.28
v 0.6624 1.22 -2.28
v 0.86 1.3 -2.05
v -0.86 1.3 -2.05
v -0.72 1.24 -2.28
v 0.72 1.24 -2.28
vn 0.3099 0.9507 -0.0077
vn 0.328 0.9446 -0.0122
vn 0.3099 0.9507 -0.0077
vn 0.2916 0.9565 -0.0031
vn 0.5043 0.8573 -0.1037
vn 0.5179 0.8517 -0.0792
vn 0.5043 0.8573 -0.1037
vn 0.4902 0.8621 -0.1282
vn 0.9151 0.3143 -0.2526
vn 0.9275 0.3049 -0.2164
vn 0.9151 0.3143 -0.2526
vn 0.9013 0.3231 -0.2885
vn 0 1 0
vn 0 1 0
vn 0 1 0
vn 0 1 0
vn -0.9145 0.3143 -0.2546
vn -0.908 0.2985 -0.2941
vn -0.9145 0.3143 -0.2546
vn -0.9194 0.3296 -0.2145
vn -0.504 0.857 -0.1072
vn -0.514 0.8452 -0.1462
vn -0.504 0.857 -0.1072
vn -0.4931 0.8673 -0.0681
vn -0.3099 0.9507 -0.0086
vn -0.3279 0.9443 -0.0297
vn -0.3099 0.9507 -0.0086
vn -0.2916 0.9565 0.0124
vn 0 -0.9806 -0.1961
vn 0 -0.9806 -0.1961
vn 0 -0.9806 -0.1961
vn 0 -0.9806 -0.1961
vn 0.2734 0.9484 0.1608
vn 0.2879 0.9444 0.1585
vn 0.2734 0.9484 0.1608
vn 0.2587 0.9521 0.1631
vn 0.4969 0.8662 0.0537
vn 0.4937 0.8683 0.0494
vn 0.4969 0.8662 0.0537
vn 0.5001 0.8641 0.0579
vn 0.9314 0.3373 -0.1366
vn 0.9333 0.3346 -0.1307
vn 0.9314 0.3373 -0.1366
vn 0.9295 0.34 -0.1426
vn 0 1 0
vn 0 1 0
vn 0 1 0
vn 0 1 0
vn -0.9313 0.3373 -0.1373
vn -0.9315 0.3339 -0.1442
vn -0.9313 0.3373 -0.1373
vn -0.9311 0.3406 -0.1304
vn -0.4968 0.8661 0.0543
vn -0.4933 0.8677 0.0614
vn -0.4968 0.8661 0.0543
vn -0.5003 0.8645 0.0473
vn -0.2734 0.9484 0.1603
vn -0.2883 0.9458 0.1495
vn -0.2734 0.9484 0.1603
vn -0.2584 0.9508 0.1711
vn 0 -0.963 -0.2696
vn 0 -0.963 -0.2696
vn 0 -0.963 -0.2696
vn 0 -0.963 -0.2696
vn 0.2511 0.9484 0.1934
vn 0.2573 0.9467 0.1937
vn 0.2511 0.9484 0.1934
vn 0.2449 0.9501 0.1932
vn 0.5128 0.8511 0.1123
vn 0.4987 0.8617 0.0942
vn 0.5128 0.8511 0.1123
vn 0.5266 0.8401 0.1302
vn 0.9409 0.3365 -0.0382
vn 0.938 0.3431 -0.0497
vn 0.9409 0.3365 -0.0382
vn 0.9437 0.3299 -0.0267
vn 0 1 0
vn 0 1 0
vn 0 1 0
vn 0 1 0
vn -0.9409 0.3365 -0.0371
vn -0.9389 0.3434 -0.0241
vn -0.9409 0.3365 -0.0371
vn -0.9428 0.3296 -0.05
vn -0.5128 0.8509 0.1138
vn -0.4961 0.8571 0.1386
vn -0.5128 0.8509 0.1138
vn -0.5291 0.8439 0.0889
vn -0.2511 0.9485 0.1934
vn -0.2574 0.9473 0.1906
vn -0.2511 0.9485 0.1934
vn -0.2447 0.9496 0.1961
vn 0 -0.9719 -0.2356
vn 0 -0.9719 -0.2356
vn 0 -0.9719 -0.2356
vn 0 -0.9719 -0.2356
vn 0.2443 0.9478 0.2049
vn 0.2443 0.9478 0.2049
vn 0.2443 0.9478 0.2049
vn 0.2443 0.9478 0.2049
vn 0.5478 0.8237 0.1462
vn 0.5274 0.8413 0.1182
vn 0.5478 0.8237 0.1462
vn 0.5674 0.8049 0.174
vn 0.9481 0.3172 0.0214
vn 0.944 0.33 0
vn 0.9481 0.3172 0.0214
vn 0.9517 0.3042 0.0427
vn 0 1 0
vn 0 1 0
vn 0 1 0
vn 0 1 0
vn -0.9481 0.3171 0.0232
vn -0.943 0.3296 0.0463
vn -0.9481 0.3171 0.0232
vn -0.9525 0.3044 0
vn -0.5479 0.8235 0.1473
vn -0.5225 0.8334 0.1802
vn -0.5479 0.8235 0.1473
vn -0.5724 0.812 0.1141
vn -0.2443 0.9478 0.2049
vn -0.2443 0.9478 0.2049
vn -0.2443 0.9478 0.2049
vn -0.2443 0.9478 0.2049
vn 0 -0.9774 -0.2113
vn 0 -0.9774 -0.2113
vn 0 -0.9774 -0.2113
vn 0 -0.9774 -0.2113
vn 0.2469 0.9479 0.2014
vn 0.2445 0.9486 0.201
vn 0.2469 0.9479 0.2014
vn 0.2493 0.9472 0.2019
vn 0.5935 0.7904 0.1517
vn 0.5719 0.8113 0.1212
vn 0.5935 0.7904 0.1517
vn 0.614 0.7681 0.1819
vn 0.956 0.2905 0.0395
vn 0.9524 0.3044 0.0167
vn 0.956 0.2905 0.0395
vn 0.959 0.2765 0.0623
vn 0 1 0
vn 0 1 0
vn 0 1 0
vn 0 1 0
vn -0.956 0.2905 0.0412
vn -0.9505 0.3038 0.0656
vn -0.956 0.2905 0.0412
vn -0.9607 0.277 0.0168
vn -0.5937 0.7901 0.1524
vn -0.566 0.803 0.1866
vn -0.5937 0.7901 0.1524
vn -0.6201 0.7756 0.1179
vn -0.2469 0.9479 0.2014
vn -0.2444 0.9484 0.2019
vn -0.2469 0.9479 0.2014
vn -0.2493 0.9474 0.2009
vn 0 -0.9806 -0.1961
vn 0 -0.9806 -0.1961
vn 0 -0.9806 -0.1961
vn 0 -0.9806 -0.1961
vn 0.2539 0.9495 0.1845
vn 0.2502 0.9506 0.1836
vn 0.2539 0.9495 0.1845
vn 0.2577 0.9483 0.1853
vn 0.6396 0.7551 0.1439
vn 0.6204 0.776 0.1139
vn 0.6396 0.7551 0.1439
vn 0.6578 0.7329 0.1736
vn 0.9632 0.2646 0.0469
vn 0.9606 0.2769 0.0252
vn 0.9632 0.2646 0.0469
vn 0.9653 0.2521 0.0685
vn 0 1 0
vn 0 1 0
vn 0 1 0
vn 0 1 0
vn -0.9632 0.2646 0.0482
vn -0.9584 0.2763 0.071
vn -0.9632 0.2646 0.0482
vn -0.9672 0.2526 0.0254
vn -0.6398 0.7549 0.1444
vn -0.6146 0.7688 0.1769
vn -0.6398 0.7549 0.1444
vn -0.6638 0.7396 0.1115
vn -0.2539 0.9495 0.1844
vn -0.2501 0.9504 0.1851
vn -0.2539 0.9495 0.1844
vn -0.2578 0.9486 0.1838
vn 0 -0.985 -0.1724
vn 0 -0.985 -0.1724
vn 0 -0.985 -0.1724
vn 0 -0.985 -0.1724
vn 0.2634 0.9586 0.1085
vn 0.2607 0.9594 0.1079
vn 0.2634 0.9586 0.1085
vn 0.266 0.9578 0.1091
vn 0.6777 0.7304 0.085
vn 0.6664 0.7426 0.0666
vn 0.6777 0.7304 0.085
vn 0.6886 0.7177 0.1034
vn 0.9688 0.2459 0.0296
vn 0.9674 0.2527 0.0169
vn 0.9688 0.2459 0.0296
vn 0.9701 0.239 0.0422
vn 0 1 0
vn 0 1 0
vn 0 1 0
vn 0 1 0
vn -0.9688 0.2459 0.03
vn -0.9666 0.2525 0.043
vn -0.9688 0.2459 0.03
vn -0.9708 0.2392 0.017
vn -0.6778 0.7303 0.0852
vn -0.6643 0.7401 0.1046
vn -0.6778 0.7303 0.0852
vn -0.6908 0.72 0.0658
vn -0.2634 0.9586 0.1085
vn -0.2607 0.9593 0.109
vn -0.2634 0.9586 0.1085
vn -0.2661 0.9579 0.108
vn 0 -0.995 -0.0995
vn 0 -0.995 -0.0995
vn 0 -0.995 -0.0995
vn 0 -0.995 -0.0995
vn 0.2676 0.9635 0
vn 0.2676 0.9635 0
vn 0.2676 0.9635 0
vn 0.2676 0.9635 0
vn 0.6923 0.7216 0
vn 0.6923 0.7216 0
vn 0.6923 0.7216 0
vn 0.6923 0.7216 0
vn 0.971 0.2393 0
vn 0.971 0.2393 0
vn 0.971 0.2393 0
vn 0.971 0.2393 0
vn 0 1 0
vn 0 1 0
vn 0 1 0
vn 0 1 0
vn -0.971 0.2393 0
vn -0.971 0.2393 0
vn -0.971 0.2393 0
vn -0.971 0.2393 0
vn -0.6923 0.7216 0
vn -0.6923 0.7216 0
vn -0.6923 0.7216 0
vn -0.6923 0.7216 0
vn -0.2676 0.9635 0
vn -0.2676 0.9635 0
vn -0.2676 0.9635 0
vn -0.2676 0.9635 0
vn 0 -1 0
vn 0 -1 0
vn 0 -1 0
vn 0 -1 0
vn 0.2611 0.9554 -0.1382
vn 0.2651 0.9544 -0.1376
vn 0.2611 0.9554 -0.1382
vn 0.2571 0.9564 -0.1388
vn 0.6719 0.732 -0.1126
vn 0.6897 0.7189 -0.0869
vn 0.6719 0.732 -0.1126
vn 0.6533 0.7444 -0.1381
vn 0.9678 0.2481 -0.0431
vn 0.9706 0.2392 -0.0255
vn 0.9678 0.2481 -0.0431
vn 0.9645 0.257 -0.0607
vn 0 1 0
vn 0 1 0
vn 0 1 0
vn 0 1 0
vn -0.9678 0.2482 -0.0424
vn -0.9692 0.2388 -0.0594
vn -0.9678 0.2482 -0.0424
vn -0.966 0.2574 -0.0254
vn -0.6718 0.7321 -0.1124
vn -0.6858 0.7148 -0.1367
vn -0.6718 0.7321 -0.1124
vn -0.6571 0.7487 -0.0879
vn -0.2611 0.9554 -0.1382
vn -0.265 0.9541 -0.1391
vn -0.2611 0.9554 -0.1382
vn -0.2571 0.9566 -0.1373
vn 0 -0.9923 0.124
vn 0 -0.9923 0.124
vn 0 -0.9923 0.124
vn 0 -0.9923 0.124
vn 0.2503 0.9458 -0.2072
vn 0.254 0.9449 -0.2065
vn 0.2503 0.9458 -0.2072
vn 0.2465 0.9466 -0.2078
vn 0.6274 0.762 -0.1605
vn 0.6545 0.7458 -0.124
vn 0.6274 0.762 -0.1605
vn 0.5989 0.7763 -0.1966
vn 0.9613 0.2709 -0.0509
vn 0.966 0.2574 -0.0254
vn 0.9613 0.2709 -0.0509
vn 0.9558 0.2841 -0.0764
vn 0 1 0
vn 0 1 0
vn 0 1 0
vn 0 1 0
vn -0.9613 0.2709 -0.0492
vn -0.9637 0.2568 -0.0731
vn -0.9613 0.2709 -0.0492
vn -0.9583 0.2848 -0.0252
vn -0.6272 0.7623 -0.1598
vn -0.6473 0.7376 -0.1922
vn -0.6272 0.7623 -0.1598
vn -0.6058 0.7854 -0.1271
vn -0.2503 0.9458 -0.2072
vn -0.2539 0.9446 -0.208
vn -0.2503 0.9458 -0.2072
vn -0.2466 0.9469 -0.2064
vn 0 -0.9806 0.1961
vn 0 -0.9806 0.1961
vn 0 -0.9806 0.1961
vn 0 -0.9806 0.1961
vn 0.2426 0.9217 -0.3027
vn 0.2401 0.9221 -0.3035
vn 0.2426 0.9217 -0.3027
vn 0.245 0.9213 -0.3019
vn 0.5714 0.7954 -0.202
vn 0.6034 0.7822 -0.1554
vn 0.5714 0.7954 -0.202
vn 0.5376 0.8059 -0.248
vn 0.954 0.2996 -0.0105
vn 0.9584 0.2848 0.0192
vn 0.954 0.2996 -0.0105
vn 0.9486 0.314 -0.0402
vn 0 1 0
vn 0 1 0
vn 0 1 0
vn 0 1 0
vn -0.954 0.2996 -0.0072
vn -0.958 0.2847 -0.0333
vn -0.954 0.2996 -0.0072
vn -0.9492 0.3142 0.019
vn -0.5713 0.7961 -0.1994
vn -0.594 0.77 -0.2328
vn -0.5713 0.7961 -0.1994
vn -0.5473 0.8204 -0.1656
vn -0.2426 0.9217 -0.3027
vn -0.2402 0.9224 -0.3025
vn -0.2426 0.9217 -0.3027
vn -0.2449 0.921 -0.3029
vn 0 -0.9459 0.3243
vn 0 -0.9459 0.3243
vn 0 -0.9459 0.3243
vn 0 -0.9459 0.3243
vn 0.2621 0.9416 -0.2114
vn 0.2509 0.9434 -0.2168
vn 0.2621 0.9416 -0.2114
vn 0.2732 0.9396 -0.206
vn 0.5376 0.8363 -0.1078
vn 0.5529 0.8289 -0.0844
vn 0.5376 0.8363 -0.1078
vn 0.5218 0.8429 -0.1311
vn 0.9456 0.3182 0.0672
vn 0.9466 0.3133 0.0757
vn 0.9456 0.3182 0.0672
vn 0.9446 0.323 0.0588
vn 0 1 0
vn 0 1 0
vn 0 1 0
vn 0 1 0
vn -0.9456 0.3181 0.0682
vn -0.9476 0.3136 0.0609
vn -0.9456 0.3181 0.0682
vn -0.9435 0.3226 0.0755
vn -0.5377 0.8365 -0.1058
vn -0.5509 0.8259 -0.1201
vn -0.5377 0.8365 -0.1058
vn -0.5242 0.8467 -0.0913
vn -0.262 0.9416 -0.2116
vn -0.2512 0.9444 -0.2124
vn -0.262 0.9416 -0.2116
vn -0.2729 0.9387 -0.2108
vn 0 -0.9615 0.2747
vn 0 -0.9615 0.2747
vn 0 -0.9615 0.2747
vn 0 -0.9615 0.2747
vn 0.303 0.9504 -0.0703
vn 0.2779 0.956 -0.0938
vn 0.303 0.9504 -0.0703
vn 0.3277 0.9436 -0.0467
vn 0.5378 0.8408 0.0614
vn 0.5261 0.8498 0.032
vn 0.5378 0.8408 0.0614
vn 0.549 0.8309 0.0907
vn 0.9254 0.3019 0.229
vn 0.9276 0.3172 0.1976
vn 0.9254 0.3019 0.229
vn 0.9222 0.2862 0.2602
vn 0 1 0
vn 0 1 0
vn 0 1 0
vn 0 1 0
vn -0.9261 0.3019 0.2265
vn -0.9153 0.313 0.2534
vn -0.9261 0.3019 0.2265
vn -0.9359 0.2904 0.1994
vn -0.538 0.841 0.0579
vn -0.525 0.848 0.0728
vn -0.538 0.841 0.0579
vn -0.5507 0.8336 0.043
vn -0.3029 0.9503 -0.0715
vn -0.2782 0.9571 -0.0803
vn -0.3029 0.9503 -0.0715
vn -0.3274 0.9428 -0.0626
vn 0 -0.9676 0.2524
vn 0 -0.9676 0.2524
vn 0 -0.9676 0.2524
vn 0 -0.9676 0.2524
f 1//1 2//2 3//3
f 1//1 3//3 4//4
f 5//5 6//6 7//7
f 5//5 7//7 8//8
f 9//9 10//10 11//11
f 9//9 11//11 12//12
f 13//13 14//14 15//15
f 13//13 15//15 16//16
f 17//17 18//18 19//19
f 17//17 19//19 20//20
f 21//21 22//22 23//23
f 21//21 23//23 24//24
f 25//25 26//26 27//27
f 25//25 27//27 28//28
f 29//29 30//30 31//31
f 29//29 31//31 32//32
f 33//33 34//34 35//35
f 33//33 35//35 36//36
f 37//37 38//38 39//39
f 37//37 39//39 40//40
f 41//41 42//42 43//43
f 41//41 43//43 44//44
f 45//45 46//46 47//47
f 45//45 47//47 48//48
f 49//49 50//50 51//51
f 49//49 51//51 52//52
f 53//53 54//54 55//55
f 53//53 55//55 56//56
f 57//57 58//58 59//59
f 57//57 59//59 60//60
f 61//61 62//62 63//63
f 61//61 63//63 64//64
f 65//65 66//66 67//67
f 65//65 67//67 68//68
f 69//69 70//70 71//71
f 69//69 71//71 72//72
f 73//73 74//74 75//75
f 73//73 75//75 76//76
f 77//77 78//78 79//79
f 77//77 79//79 80//80
f 81//81 82//82 83//83
f 81//81 83//83 84//84
f 85//85 86//86 87//87
f 85//85 87//87 88//88
f 89//89 90//90 91//91
f 89//89 91//91 92//92
f 93//93 94//94 95//95
f 93//93 95//95 96//96
f 97//97 98//98 99//99
f 97//97 99//99 100//100
f 101//101 102//102 103//103
f 101//101 103//103 104//104
f 105//105 106//106 107//107
f 105//105 107//107 108//108
f 109//109 110//110 111//111
f 109//109 111//111 112//112
f 113//113 114//114 115//115
f 113//113 115//115 116//116
f 117//117 118//118 119//119
f 117//117 119//119 120//120
f 121//121 122//122 123//123
f 121//121 123//123 124//124
f 125//125 126//126 127//127
f 125//125 127//127 128//128
f 129//129 130//130 131//131
f 129//129 131//131 132//132
f 133//133 134//134 135//135
f 133//133 135//135 136//136
f 137//137 138//138 139//139
f 137//137 139//139 140//140
f 141//141 142//142 143//143
f 141//141 143//143 144//144
f 145//145 146//146 147//147
f 145//145 147//147 148//148
f 149//149 150//150 151//151
f 149//149 151//151 152//152
f 153//153 154//154 155//155
f 153//153 155//155 156//156
f 157//157 158//158 159//159
f 157//157 159//159 160//160
f 161//161 162//162 163//163
f 161//161 163//163 164//164
f 165//165 166//166 167//167
f 165//165 167//167 168//168
f 169//169 170//170 171//171
f 169//169 171//171 172//172
f 173//173 174//174 175//175
f 173//173 175//175 176//176
f 177//177 178//178 179//179
f 177//177 179//179 180//180
f 181//181 182//182 183//183
f 181//181 183//183 184//184
f 185//185 186//186 187//187
f 185//185 187//187 188//188
f 189//189 190//190 191//191
f 189//189 191//191 192//192
f 193//193 194//194 195//195
f 193//193 195//195 196//196
f 197//197 198//198 199//199
f 197//197 199//199 200//200
f 201//201 202//202 203//203
f 201//201 203//203 204//204
f 205//205 206//206 207//207
f 205//205 207//207 208//208
f 209//209 210//210 211//211
f 209//209 211//211 212//212
f 213//213 214//214 215//215
f 213//213 215//215 216//216
f 217//217 218//218 219//219
f 217//217 219//219 220//220
f 221//221 222//222 223//223
f 221//221 223//223 224//224
f 225//225 226//226 227//227
f 225//225 227//227 228//228
f 229//229 230//230 231//231
f 229//229 231//231 232//232
f 233//233 234//234 235//235
f 233//233 235//235 236//236
f 237//237 238//238 239//239
f 237//237 239//239 240//240
f 241//241 242//242 243//243
f 241//241 243//243 244//244
f 245//245 246//246 247//247
f 245//245 247//247 248//248
f 249//249 250//250 251//251
f 249//249 251//251 252//252
f 253//253 254//254 255//255
f 253//253 255//255 256//256
f 257//257 258//258 259//259
f 257//257 259//259 260//260
f 261//261 262//262 263//263
f 261//261 263//263 264//264
f 265//265 266//266 267//267
f 265//265 267//267 268//268
f 269//269 270//270 271//271
f 269//269 271//271 272//272
f 273//273 274//274 275//275
f 273//273 275//275 276//276
f 277//277 278//278 279//279
f 277//277 279//279 280//280
f 281//281 282//282 283//283
f 281//281 283//283 284//284
f 285//285 286//286 287//287
f 285//285 287//287 288//288
f 289//289 290//290 291//291
f 289//289 291//291 292//292
f 293//293 294//294 295//295
f 293//293 295//295 296//296
f 297//297 298//298 299//299
f 297//297 299//299 300//300
f 301//301 302//302 303//303
f 301//301 303//303 304//304
f 305//305 306//306 307//307
f 305//305 307//307 308//308
f 309//309 310//310 311//311
f 309//309 311//311 312//312
f 313//313 314//314 315//315
f 313//313 315//315 316//316
f 317//317 318//318 319//319
f 317//317 319//319 320//320
f 321//321 322//322 323//323
f 321//321 323//323 324//324
f 325//325 326//326 327//327
f 325//325 327//327 328//328
f 329//329 330//330 331//331
f 329//329 331//331 332//332
f 333//333 334//334 335//335
f 333//333 335//335 336//336
f 337//337 338//338 339//339
f 337//337 339//339 340//340
f 341//341 342//342 343//343
f 341//341 343//343 344//344
f 345//345 346//346 347//347
f 345//345 347//347 348//348
f 349//349 350//350 351//351
f 349//349 351//351 352//352
f 353//353 354//354 355//355
f 353//353 355//355 356//356
f 357//357 358//358 359//359
f 357//357 359//359 360//360
f 361//361 362//362 363//363
f 361//361 363//363 364//364
f 365//365 366//366 367//367
f 365//365 367//367 368//368
f 369//369 370//370 371//371
f 369//369 371//371 372//372
f 373//373 374//374 375//375
f 373//373 375//375 376//376
f 377//377 378//378 379//379
f 377//377 379//379 380//380
f 381//381 382//382 383//383
f 381//381 383//383 384//384
f 385//385 386//386 387//387
f 385//385 387//387 388//388
f 389//389 390//390 391//391
f 389//389 391//391 392//392
f 393//393 394//394 395//395
f 393//393 395//395 396//396
f 397//397 398//398 399//399
f 397//397 399//399 400//400
f 401//401 402//402 403//403
f 401//401 403//403 404//404
f 405//405 406//406 407//407
f 405//405 407//407 408//408
f 409//409 410//410 411//411
f 409//409 411//411 412//412
f 413//413 414//414 415//415
f 413//413 415//415 416//416
f -0.72,1.2000000000000002,2.21//-0.72,1.2000000000000002,2.21 0.72,1.2000000000000002,2.21//0.72,1.2000000000000002,2.21 0.6624,1.1800000000000002,2.21//0.6624,1.1800000000000002,2.21
f -0.72,1.2000000000000002,2.21//-0.72,1.2000000000000002,2.21 0.6624,1.1800000000000002,2.21//0.6624,1.1800000000000002,2.21 -0.6624,1.1800000000000002,2.21//-0.6624,1.1800000000000002,2.21
f -0.6624,1.1800000000000002,2.21//-0.6624,1.1800000000000002,2.21 0.6624,1.1800000000000002,2.21//0.6624,1.1800000000000002,2.21 0.396,1.0180000000000002,2.21//0.396,1.0180000000000002,2.21
f -0.6624,1.1800000000000002,2.21//-0.6624,1.1800000000000002,2.21 0.396,1.0180000000000002,2.21//0.396,1.0180000000000002,2.21 -0.396,1.0180000000000002,2.21//-0.396,1.0180000000000002,2.21
f -0.396,1.0180000000000002,2.21//-0.396,1.0180000000000002,2.21 0.396,1.0180000000000002,2.21//0.396,1.0180000000000002,2.21 0.252,0.5800000000000001,2.21//0.252,0.5800000000000001,2.21
f -0.396,1.0180000000000002,2.21//-0.396,1.0180000000000002,2.21 0.252,0.5800000000000001,2.21//0.252,0.5800000000000001,2.21 -0.252,0.5800000000000001,2.21//-0.252,0.5800000000000001,2.21
f 0.72,1.2400000000000002,-2.281//0.72,1.2400000000000002,-2.281 -0.72,1.2400000000000002,-2.281//-0.72,1.2400000000000002,-2.281 -0.6624,1.2200000000000002,-2.281//-0.6624,1.2200000000000002,-2.281
f 0.72,1.2400000000000002,-2.281//0.72,1.2400000000000002,-2.281 -0.6624,1.2200000000000002,-2.281//-0.6624,1.2200000000000002,-2.281 0.6624,1.2200000000000002,-2.281//0.6624,1.2200000000000002,-2.281
f -0.6624,1.2200000000000002,-2.281//-0.6624,1.2200000000000002,-2.281 -0.396,1.0440000000000003,-2.281//-0.396,1.0440000000000003,-2.281 0.396,1.0440000000000003,-2.281//0.396,1.0440000000000003,-2.281
f -0.6624,1.2200000000000002,-2.281//-0.6624,1.2200000000000002,-2.281 0.396,1.0440000000000003,-2.281//0.396,1.0440000000000003,-2.281 0.6624,1.2200000000000002,-2.281//0.6624,1.2200000000000002,-2.281
f -0.396,1.0440000000000003,-2.281//-0.396,1.0440000000000003,-2.281 -0.252,0.5800000000000001,-2.281//-0.252,0.5800000000000001,-2.281 0.252,0.5800000000000001,-2.281//0.252,0.5800000000000001,-2.281
f -0.396,1.0440000000000003,-2.281//-0.396,1.0440000000000003,-2.281 0.252,0.5800000000000001,-2.281//0.252,0.5800000000000001,-2.281 0.396,1.0440000000000003,-2.281//0.396,1.0440000000000003,-2.281
g glass
usemtl glass
v -0.62 1.12 0.62
v -0.4 1.28 0.42
v 0.4 1.28 0.42
v 0.62 1.12 0.62
v -0.6 1.12 -0.2
v -0.38 1.27 -0.2
v 0.38 1.27 -0.2
v 0.6 1.12 -0.2
v -0.6 1.05 -0.85
v -0.36 1.15 -0.85
v 0.36 1.15 -0.85
v 0.6 1.05 -0.85
vn -0.59 -0.4747 -0.6531
vn -0.2743 0.9098 -0.3116
vn 0.5658 0.5201 -0.6398
vn 0.2759 -0.9146 -0.2955
vn -0.9547 -0.2766 -0.11
vn -0.3027 0.9474 -0.104
vn 0.2607 0.9613 -0.0891
vn 0.9536 -0.2978 0.044
vn -0.3351 -0.9368 0.1009
vn -0.3225 0.9339 -0.154
vn 0.1283 0.9745 -0.1839
vn 0.7798 0.6116 -0.1335
f 417//417 418//418 422//422
f 417//417 422//422 421//421
f 418//418 419//419 423//423
f 418//418 423//423 422//422
f 419//419 420//420 424//424
f 419//419 424//424 423//423
f 420//420 417//417 421//421
f 420//420 421//421 424//424
f 421//421 422//422 426//426
f 421//421 426//426 425//425
f 422//422 423//423 427//427
f 422//422 427//427 426//426
f 423//423 424//424 428//428
f 423//423 428//428 427//427
f 424//424 421//421 425//425
f 424//424 425//425 428//428
f 417//417 418//418 419//419
f 417//417 419//419 420//420
g wheel_FL
usemtl tire
v -0.14 0.352 0
v -0.14 0.3348 0.1088
v 0.14 0.3348 0.1088
v 0.14 0.352 0
v -0.14 0.3348 0.1088
v -0.14 0.2848 0.2069
v 0.14 0.2848 0.2069
v 0.14 0.3348 0.1088
v -0.14 0.2848 0.2069
v -0.14 0.2069 0.2848
v 0.14 0.2069 0.2848
v 0.14 0.2848 0.2069
v -0.14 0.2069 0.2848
v -0.14 0.1088 0.3348
v 0.14 0.1088 0.3348
v 0.14 0.2069 0.2848
v -0.14 0.1088 0.3348
v -0.14 0 0.352
v 0.14 0 0.352
v 0.14 0.1088 0.3348
v -0.14 0 0.352
v -0.14 -0.1088 0.3348
v 0.14 -0.1088 0.3348
v 0.14 0 0.352
v -0.14 -0.1088 0.3348
v -0.14 -0.2069 0.2848
v 0.14 -0.2069 0.2848
v 0.14 -0.1088 0.3348
v -0.14 -0.2069 0.2848
v -0.14 -0.2848 0.2069
v 0.14 -0.2848 0.2069
v 0.14 -0.2069 0.2848
v -0.14 -0.2848 0.2069
v -0.14 -0.3348 0.1088
v 0.14 -0.3348 0.1088
v 0.14 -0.2848 0.2069
v -0.14 -0.3348 0.1088
v -0.14 -0.352 0
v 0.14 -0.352 0
v 0.14 -0.3348 0.1088
v -0.14 -0.352 0
v -0.14 -0.3348 -0.1088
v 0.14 -0.3348 -0.1088
v 0.14 -0.352 0
v -0.14 -0.3348 -0.1088
v -0.14 -0.2848 -0.2069
v 0.14 -0.2848 -0.2069
v 0.14 -0.3348 -0.1088
v -0.14 -0.2848 -0.2069
v -0.14 -0.2069 -0.2848
v 0.14 -0.2069 -0.2848
v 0.14 -0.2848 -0.2069
v -0.14 -0.2069 -0.2848
v -0.14 -0.1088 -0.3348
v 0.14 -0.1088 -0.3348
v 0.14 -0.2069 -0.2848
v -0.14 -0.1088 -0.3348
v -0.14 -0 -0.352
v 0.14 -0 -0.352
v 0.14 -0.1088 -0.3348
v -0.14 -0 -0.352
v -0.14 0.1088 -0.3348
v 0.14 0.1088 -0.3348
v 0.14 -0 -0.352
v -0.14 0.1088 -0.3348
v -0.14 0.2069 -0.2848
v 0.14 0.2069 -0.2848
v 0.14 0.1088 -0.3348
v -0.14 0.2069 -0.2848
v -0.14 0.2848 -0.2069
v 0.14 0.2848 -0.2069
v 0.14 0.2069 -0.2848
v -0.14 0.2848 -0.2069
v -0.14 0.3348 -0.1088
v 0.14 0.3348 -0.1088
v 0.14 0.2848 -0.2069
v -0.14 0.3348 -0.1088
v -0.14 0.352 -0
v 0.14 0.352 -0
v 0.14 0.3348 -0.1088
v -0.0616 0.2182 0
v -0.0616 0.2076 0.0674
v 0.0616 0.2076 0.0674
v 0.0616 0.2182 0
v -0.0616 0 0
v -0.0616 0.2076 0.0674
v -0.0616 0.2182 0
v 0.0616 0 0
v 0.0616 0.2182 0
v 0.0616 0.2076 0.0674
v -0.0616 0.2076 0.0674
v -0.0616 0.1766 0.1283
v 0.0616 0.1766 0.1283
v 0.0616 0.2076 0.0674
v -0.0616 0 0
v -0.0616 0.1766 0.1283
v -0.0616 0.2076 0.0674
v 0.0616 0 0
v 0.0616 0.2076 0.0674
v 0.0616 0.1766 0.1283
v -0.0616 0.1766 0.1283
v -0.0616 0.1283 0.1766
v 0.0616 0.1283 0.1766
v 0.0616 0.1766 0.1283
v -0.0616 0 0
v -0.0616 0.1283 0.1766
v -0.0616 0.1766 0.1283
v 0.0616 0 0
v 0.0616 0.1766 0.1283
v 0.0616 0.1283 0.1766
v -0.0616 0.1283 0.1766
v -0.0616 0.0674 0.2076
v 0.0616 0.0674 0.2076
v 0.0616 0.1283 0.1766
v -0.0616 0 0
v -0.0616 0.0674 0.2076
v -0.0616 0.1283 0.1766
v 0.0616 0 0
v 0.0616 0.1283 0.1766
v 0.0616 0.0674 0.2076
v -0.0616 0.0674 0.2076
v -0.0616 0 0.2182
v 0.0616 0 0.2182
v 0.0616 0.0674 0.2076
v -0.0616 0 0
v -0.0616 0 0.2182
v -0.0616 0.0674 0.2076
v 0.0616 0 0
v 0.0616 0.0674 0.2076
v 0.0616 0 0.2182
v -0.0616 0 0.2182
v -0.0616 -0.0674 0.2076
v 0.0616 -0.0674 0.2076
v 0.0616 0 0.2182
v -0.0616 0 0
v -0.0616 -0.0674 0.2076
v -0.0616 0 0.2182
v 0.0616 0 0
v 0.0616 0 0.2182
v 0.0616 -0.0674 0.2076
v -0.0616 -0.0674 0.2076
v -0.0616 -0.1283 0.1766
v 0.0616 -0.1283 0.1766
v 0.0616 -0.0674 0.2076
v -0.0616 0 0
v -0.0616 -0.1283 0.1766
v -0.0616 -0.0674 0.2076
v 0.0616 0 0
v 0.0616 -0.0674 0.2076
v 0.0616 -0.1283 0.1766
v -0.0616 -0.1283 0.1766
v -0.0616 -0.1766 0.1283
v 0.0616 -0.1766 0.1283
v 0.0616 -0.1283 0.1766
v -0.0616 0 0
v -0.0616 -0.1766 0.1283
v -0.0616 -0.1283 0.1766
v 0.0616 0 0
v 0.0616 -0.1283 0.1766
v 0.0616 -0.1766 0.1283
v -0.0616 -0.1766 0.1283
v -0.0616 -0.2076 0.0674
v 0.0616 -0.2076 0.0674
v 0.0616 -0.1766 0.1283
v -0.0616 0 0
v -0.0616 -0.2076 0.0674
v -0.0616 -0.1766 0.1283
v 0.0616 0 0
v 0.0616 -0.1766 0.1283
v 0.0616 -0.2076 0.0674
v -0.0616 -0.2076 0.0674
v -0.0616 -0.2182 0
v 0.0616 -0.2182 0
v 0.0616 -0.2076 0.0674
v -0.0616 0 0
v -0.0616 -0.2182 0
v -0.0616 -0.2076 0.0674
v 0.0616 0 0
v 0.0616 -0.2076 0.0674
v 0.0616 -0.2182 0
v -0.0616 -0.2182 0
v -0.0616 -0.2076 -0.0674
v 0.0616 -0.2076 -0.0674
v 0.0616 -0.2182 0
v -0.0616 0 0
v -0.0616 -0.2076 -0.0674
v -0.0616 -0.2182 0
v 0.0616 0 0
v 0.0616 -0.2182 0
v 0.0616 -0.2076 -0.0674
v -0.0616 -0.2076 -0.0674
v -0.0616 -0.1766 -0.1283
v 0.0616 -0.1766 -0.1283
v 0.0616 -0.2076 -0.0674
v -0.0616 0 0
v -0.0616 -0.1766 -0.1283
v -0.0616 -0.2076 -0.0674
v 0.0616 0 0
v 0.0616 -0.2076 -0.0674
v 0.0616 -0.1766 -0.1283
v -0.0616 -0.1766 -0.1283
v -0.0616 -0.1283 -0.1766
v 0.0616 -0.1283 -0.1766
v 0.0616 -0.1766 -0.1283
v -0.0616 0 0
v -0.0616 -0.1283 -0.1766
v -0.0616 -0.1766 -0.1283
v 0.0616 0 0
v 0.0616 -0.1766 -0.1283
v 0.0616 -0.1283 -0.1766
v -0.0616 -0.1283 -0.1766
v -0.0616 -0.0674 -0.2076
v 0.0616 -0.0674 -0.2076
v 0.0616 -0.1283 -0.1766
v -0.0616 0 0
v -0.0616 -0.0674 -0.2076
v -0.0616 -0.1283 -0.1766
v 0.0616 0 0
v 0.0616 -0.1283 -0.1766
v 0.0616 -0.0674 -0.2076
v -0.0616 -0.0674 -0.2076
v -0.0616 -0 -0.2182
v 0.0616 -0 -0.2182
v 0.0616 -0.0674 -0.2076
v -0.0616 0 0
v -0.0616 -0 -0.2182
v -0.0616 -0.0674 -0.2076
v 0.0616 0 0
v 0.0616 -0.0674 -0.2076
v 0.0616 -0 -0.2182
v -0.0616 -0 -0.2182
v -0.0616 0.0674 -0.2076
v 0.0616 0.0674 -0.2076
v 0.0616 -0 -0.2182
v -0.0616 0 0
v -0.0616 0.0674 -0.2076
v -0.0616 -0 -0.2182
v 0.0616 0 0
v 0.0616 -0 -0.2182
v 0.0616 0.0674 -0.2076
v -0.0616 0.0674 -0.2076
v -0.0616 0.1283 -0.1766
v 0.0616 0.1283 -0.1766
v 0.0616 0.0674 -0.2076
v -0.0616 0 0
v -0.0616 0.1283 -0.1766
v -0.0616 0.0674 -0.2076
v 0.0616 0 0
v 0.0616 0.0674 -0.2076
v 0.0616 0.1283 -0.1766
v -0.0616 0.1283 -0.1766
v -0.0616 0.1766 -0.1283
v 0.0616 0.1766 -0.1283
v 0.0616 0.1283 -0.1766
v -0.0616 0 0
v -0.0616 0.1766 -0.1283
v -0.0616 0.1283 -0.1766
v 0.0616 0 0
v 0.0616 0.1283 -0.1766
v 0.0616 0.1766 -0.1283
v -0.0616 0.1766 -0.1283
v -0.0616 0.2076 -0.0674
v 0.0616 0.2076 -0.0674
v 0.0616 0.1766 -0.1283
v -0.0616 0 0
v -0.0616 0.2076 -0.0674
v -0.0616 0.1766 -0.1283
v 0.0616 0 0
v 0.0616 0.1766 -0.1283
v 0.0616 0.2076 -0.0674
v -0.0616 0.2076 -0.0674
v -0.0616 0.2182 -0
v 0.0616 0.2182 -0
v 0.0616 0.2076 -0.0674
v -0.0616 0 0
v -0.0616 0.2182 -0
v -0.0616 0.2076 -0.0674
v 0.0616 0 0
v 0.0616 0.2076 -0.0674
v 0.0616 0.2182 -0
vn 0 0.9877 0.1564
vn 0 0.9877 0.1564
vn 0 0.9877 0.1564
vn 0 0.9877 0.1564
vn 0 0.891 0.454
vn 0 0.891 0.454
vn 0 0.891 0.454
vn 0 0.891 0.454
vn 0 0.7071 0.7071
vn 0 0.7071 0.7071
vn 0 0.7071 0.7071
vn 0 0.7071 0.7071
vn 0 0.454 0.891
vn 0 0.454 0.891
vn 0 0.454 0.891
vn 0 0.454 0.891
vn 0 0.1564 0.9877
vn 0 0.1564 0.9877
vn 0 0.1564 0.9877
vn 0 0.1564 0.9877
vn 0 -0.1564 0.9877
vn 0 -0.1564 0.9877
vn 0 -0.1564 0.9877
vn 0 -0.1564 0.9877
vn 0 -0.454 0.891
vn 0 -0.454 0.891
vn 0 -0.454 0.891
vn 0 -0.454 0.891
vn 0 -0.7071 0.7071
vn 0 -0.7071 0.7071
vn 0 -0.7071 0.7071
vn 0 -0.7071 0.7071
vn 0 -0.891 0.454
vn 0 -0.891 0.454
vn 0 -0.891 0.454
vn 0 -0.891 0.454
vn 0 -0.9877 0.1564
vn 0 -0.9877 0.1564
vn 0 -0.9877 0.1564
vn 0 -0.9877 0.1564
vn 0 -0.9877 -0.1564
vn 0 -0.9877 -0.1564
vn 0 -0.9877 -0.1564
vn 0 -0.9877 -0.1564
vn 0 -0.891 -0.454
vn 0 -0.891 -0.454
vn 0 -0.891 -0.454
vn 0 -0.891 -0.454
vn 0 -0.7071 -0.7071
vn 0 -0.7071 -0.7071
vn 0 -0.7071 -0.7071
vn 0 -0.7071 -0.7071
vn 0 -0.454 -0.891
vn 0 -0.454 -0.891
vn 0 -0.454 -0.891
vn 0 -0.454 -0.891
vn 0 -0.1564 -0.9877
vn 0 -0.1564 -0.9877
vn 0 -0.1564 -0.9877
vn 0 -0.1564 -0.9877
vn 0 0.1564 -0.9877
vn 0 0.1564 -0.9877
vn 0 0.1564 -0.9877
vn 0 0.1564 -0.9877
vn 0 0.454 -0.891
vn 0 0.454 -0.891
vn 0 0.454 -0.891
vn 0 0.454 -0.891
vn 0 0.7071 -0.7071
vn 0 0.7071 -0.7071
vn 0 0.7071 -0.7071
vn 0 0.7071 -0.7071
vn 0 0.891 -0.454
vn 0 0.891 -0.454
vn 0 0.891 -0.454
vn 0 0.891 -0.454
vn 0 0.9877 -0.1564
vn 0 0.9877 -0.1564
vn 0 0.9877 -0.1564
vn 0 0.9877 -0.1564
vn 0 0.9877 0.1564
vn 0 0.9877 0.1564
vn 0 0.9877 0.1564
vn 0 0.9877 0.1564
vn -1 0 0
vn -1 0 0
vn -1 0 0
vn 1 0 0
vn 1 0 0
vn 1 0 0
vn 0 0.891 0.454
vn 0 0.891 0.454
vn 0 0.891 0.454
vn 0 0.891 0.454
vn -1 0 0
vn -1 0 0
vn -1 0 0
vn 1 0 0
vn 1 0 0
vn 1 0 0
vn 0 0.7071 0.7071
vn 0 0.7071 0.7071
vn 0 0.7071 0.7071
vn 0 0.7071 0.7071
vn -1 0 0
vn -1 0 0
vn -1 0 0
vn 1 0 0
vn 1 0 0
vn 1 0 0
vn 0 0.454 0.891
vn 0 0.454 0.891
vn 0 0.454 0.891
vn 0 0.454 0.891
vn -1 0 0
vn -1 0 0
vn -1 0 0
vn 1 0 0
vn 1 0 0
vn 1 0 0
vn 0 0.1564 0.9877
vn 0 0.1564 0.9877
vn 0 0.1564 0.9877
vn 0 0.1564 0.9877
vn -1 0 0
vn -1 0 0
vn -1 0 0
vn 1 0 0
vn 1 0 0
vn 1 0 0
vn 0 -0.1564 0.9877
vn 0 -0.1564 0.9877
vn 0 -0.1564 0.9877
vn 0 -0.1564 0.9877
vn -1 0 0
vn -1 0 0
vn -1 0 0
vn 1 0 0
vn 1 0 0
vn 1 0 0
vn 0 -0.454 0.891
vn 0 -0.454 0.891
vn 0 -0.454 0.891
vn 0 -0.454 0.891
vn -1 0 0
vn -1 0 0
vn -1 0 0
vn 1 0 0
vn 1 0 0
vn 1 0 0
vn 0 -0.7071 0.7071
vn 0 -0.7071 0.7071
vn 0 -0.7071 0.7071
vn 0 -0.7071 0.7071
vn -1 0 0
vn -1 0 0
vn -1 0 0
vn 1 0 0
vn 1 0 0
vn 1 0 0
vn 0 -0.891 0.454
vn 0 -0.891 0.454
vn 0 -0.891 0.454
vn 0 -0.891 0.454
vn -1 0 0
vn -1 0 0
vn -1 0 0
vn 1 0 0
vn 1 0 0
vn 1 0 0
vn 0 -0.9877 0.1564
vn 0 -0.9877 0.1564
vn 0 -0.9877 0.1564
vn 0 -0.9877 0.1564
vn -1 0 0
vn -1 0 0
vn -1 0 0
vn 1 0 0
vn 1 0 0
vn 1 0 0
vn 0 -0.9877 -0.1564
vn 0 -0.9877 -0.1564
vn 0 -0.9877 -0.1564
vn 0 -0.9877 -0.1564
vn -1 0 0
vn -1 0 0
vn -1 0 0
vn 1 0 0
vn 1 0 0
vn 1 0 0
vn 0 -0.891 -0.454
vn 0 -0.891 -0.454
vn 0 -0.891 -0.454
vn 0 -0.891 -0.454
vn -1 0 0
vn -1 0 0
vn -1 0 0
vn 1 0 0
vn 1 0 0
vn 1 0 0
vn 0 -0.7071 -0.7071
vn 0 -0.7071 -0.7071
vn 0 -0.7071 -0.7071
vn 0 -0.7071 -0.7071
vn -1 0 0
vn -1 0 0
vn -1 0 0
vn 1 0 0
vn 1 0 0
vn 1 0 0
vn 0 -0.454 -0.891
vn 0 -0.454 -0.891
vn 0 -0.454 -0.891
vn 0 -0.454 -0.891
vn -1 0 0
vn -1 0 0
vn -1 0 0
vn 1 0 0
vn 1 0 0
vn 1 0 0
vn 0 -0.1564 -0.9877
vn 0 -0.1564 -0.9877
vn 0 -0.1564 -0.9877
vn 0 -0.1564 -0.9877
vn -1 0 0
vn -1 0 0
vn -1 0 0
vn 1 0 0
vn 1 0 0
vn 1 0 0
vn 0 0.1564 -0.9877
vn 0 0.1564 -0.9877
vn 0 0.1564 -0.9877
vn 0 0.1564 -0.9877
vn -1 0 0
vn -1 0 0
vn -1 0 0
vn 1 0 0
vn 1 0 0
vn 1 0 0
vn 0 0.454 -0.891
vn 0 0.454 -0.891
vn 0 0.454 -0.891
vn 0 0.454 -0.891
vn -1 0 0
vn -1 0 0
vn -1 0 0
vn 1 0 0
vn 1 0 0
vn 1 0 0
vn 0 0.7071 -0.7071
vn 0 0.7071 -0.7071
vn 0 0.7071 -0.7071
vn 0 0.7071 -0.7071
vn -1 0 0
vn -1 0 0
vn -1 0 0
vn 1 0 0
vn 1 0 0
vn 1 0 0
vn 0 0.891 -0.454
vn 0 0.891 -0.454
vn 0 0.891 -0.454
vn 0 0.891 -0.454
vn -1 0 0
vn -1 0 0
vn -1 0 0
vn 1 0 0
vn 1 0 0
vn 1 0 0
vn 0 0.9877 -0.1564
vn 0 0.9877 -0.1564
vn 0 0.9877 -0.1564
vn 0 0.9877 -0.1564
vn -1 0 0
vn -1 0 0
vn -1 0 0
vn 1 0 0
vn 1 0 0
vn 1 0 0
f 429//429 430//430 431//431
f 429//429 431//431 432//432
f 433//433 434//434 435//435
f 433//433 435//435 436//436
f 437//437 438//438 439//439
f 437//437 439//439 440//440
f 441//441 442//442 443//443
f 441//441 443//443 444//444
f 445//445 446//446 447//447
f 445//445 447//447 448//448
f 449//449 450//450 451//451
f 449//449 451//451 452//452
f 453//453 454//454 455//455
f 453//453 455//455 456//456
f 457//457 458//458 459//459
f 457//457 459//459 460//460
f 461//461 462//462 463//463
f 461//461 463//463 464//464
f 465//465 466//466 467//467
f 465//465 467//467 468//468
f 469//469 470//470 471//471
f 469//469 471//471 472//472
f 473//473 474//474 475//475
f 473//473 475//475 476//476
f 477//477 478//478 479//479
f 477//477 479//479 480//480
f 481//481 482//482 483//483
f 481//481 483//483 484//484
f 485//485 486//486 487//487
f 485//485 487//487 488//488
f 489//489 490//490 491//491
f 489//489 491//491 492//492
f 493//493 494//494 495//495
f 493//493 495//495 496//496
f 497//497 498//498 499//499
f 497//497 499//499 500//500
f 501//501 502//502 503//503
f 501//501 503//503 504//504
f 505//505 506//506 507//507
f 505//505 507//507 508//508
f 509//509 510//510 511//511
f 509//509 511//511 512//512
f 513//513 514//514 515//515
f 516//516 517//517 518//518
f 519//519 520//520 521//521
f 519//519 521//521 522//522
f 523//523 524//524 525//525
f 526//526 527//527 528//528
f 529//529 530//530 531//531
f 529//529 531//531 532//532
f 533//533 534//534 535//535
f 536//536 537//537 538//538
f 539//539 540//540 541//541
f 539//539 541//541 542//542
f 543//543 544//544 545//545
f 546//546 547//547 548//548
f 549//549 550//550 551//551
f 549//549 551//551 552//552
f 553//553 554//554 555//555
f 556//556 557//557 558//558
f 559//559 560//560 561//561
f 559//559 561//561 562//562
f 563//563 564//564 565//565
f 566//566 567//567 568//568
f 569//569 570//570 571//571
f 569//569 571//571 572//572
f 573//573 574//574 575//575
f 576//576 577//577 578//578
f 579//579 580//580 581//581
f 579//579 581//581 582//582
f 583//583 584//584 585//585
f 586//586 587//587 588//588
f 589//589 590//590 591//591
f 589//589 591//591 592//592
f 593//593 594//594 595//595
f 596//596 597//597 598//598
f 599//599 600//600 601//601
f 599//599 601//601 602//602
f 603//603 604//604 605//605
f 606//606 607//607 608//608
f 609//609 610//610 611//611
f 609//609 611//611 612//612
f 613//613 614//614 615//615
f 616//616 617//617 618//618
f 619//619 620//620 621//621
f 619//619 621//621 622//622
f 623//623 624//624 625//625
f 626//626 627//627 628//628
f 629//629 630//630 631//631
f 629//629 631//631 632//632
f 633//633 634//634 635//635
f 636//636 637//637 638//638
f 639//639 640//640 641//641
f 639//639 641//641 642//642
f 643//643 644//644 645//645
f 646//646 647//647 648//648
f 649//649 650//650 651//651
f 649//649 651//651 652//652
f 653//653 654//654 655//655
f 656//656 657//657 658//658
f 659//659 660//660 661//661
f 659//659 661//661 662//662
f 663//663 664//664 665//665
f 666//666 667//667 668//668
f 669//669 670//670 671//671
f 669//669 671//671 672//672
f 673//673 674//674 675//675
f 676//676 677//677 678//678
f 679//679 680//680 681//681
f 679//679 681//681 682//682
f 683//683 684//684 685//685
f 686//686 687//687 688//688
f 689//689 690//690 691//691
f 689//689 691//691 692//692
f 693//693 694//694 695//695
f 696//696 697//697 698//698
f 699//699 700//700 701//701
f 699//699 701//701 702//702
f 703//703 704//704 705//705
f 706//706 707//707 708//708
g wheel_FR
usemtl tire
v -0.14 0.352 0
v -0.14 0.3348 0.1088
v 0.14 0.3348 0.1088
v 0.14 0.352 0
v -0.14 0.3348 0.1088
v -0.14 0.2848 0.2069
v 0.14 0.2848 0.2069
v 0.14 0.3348 0.1088
v -0.14 0.2848 0.2069
v -0.14 0.2069 0.2848
v 0.14 0.2069 0.2848
v 0.14 0.2848 0.2069
v -0.14 0.2069 0.2848
v -0.14 0.1088 0.3348
v 0.14 0.1088 0.3348
v 0.14 0.2069 0.2848
v -0.14 0.1088 0.3348
v -0.14 0 0.352
v 0.14 0 0.352
v 0.14 0.1088 0.3348
v -0.14 0 0.352
v -0.14 -0.1088 0.3348
v 0.14 -0.1088 0.3348
v 0.14 0 0.352
v -0.14 -0.1088 0.3348
v -0.14 -0.2069 0.2848
v 0.14 -0.2069 0.2848
v 0.14 -0.1088 0.3348
v -0.14 -0.2069 0.2848
v -0.14 -0.2848 0.2069
v 0.14 -0.2848 0.2069
v 0.14 -0.2069 0.2848
v -0.14 -0.2848 0.2069
v -0.14 -0.3348 0.1088
v 0.14 -0.3348 0.1088
v 0.14 -0.2848 0.2069
v -0.14 -0.3348 0.1088
v -0.14 -0.352 0
v 0.14 -0.352 0
v 0.14 -0.3348 0.1088
v -0.14 -0.352 0
v -0.14 -0.3348 -0.1088
v 0.14 -0.3348 -0.1088
v 0.14 -0.352 0
v -0.14 -0.3348 -0.1088
v -0.14 -0.2848 -0.2069
v 0.14 -0.2848 -0.2069
v 0.14 -0.3348 -0.1088
v -0.14 -0.2848 -0.2069
v -0.14 -0.2069 -0.2848
v 0.14 -0.2069 -0.2848
v 0.14 -0.2848 -0.2069
v -0.14 -0.2069 -0.2848
v -0.14 -0.1088 -0.3348
v 0.14 -0.1088 -0.3348
v 0.14 -0.2069 -0.2848
v -0.14 -0.1088 -0.3348
v -0.14 -0 -0.352
v 0.14 -0 -0.352
v 0.14 -0.1088 -0.3348
v -0.14 -0 -0.352
v -0.14 0.1088 -0.3348
v 0.14 0.1088 -0.3348
v 0.14 -0 -0.352
v -0.14 0.1088 -0.3348
v -0.14 0.2069 -0.2848
v 0.14 0.2069 -0.2848
v 0.14 0.1088 -0.3348
v -0.14 0.2069 -0.2848
v -0.14 0.2848 -0.2069
v 0.14 0.2848 -0.2069
v 0.14 0.2069 -0.2848
v -0.14 0.2848 -0.2069
v -0.14 0.3348 -0.1088
v 0.14 0.3348 -0.1088
v 0.14 0.2848 -0.2069
v -0.14 0.3348 -0.1088
v -0.14 0.352 -0
v 0.14 0.352 -0
v 0.14 0.3348 -0.1088
v -0.0616 0.2182 0
v -0.0616 0.2076 0.0674
v 0.0616 0.2076 0.0674
v 0.0616 0.2182 0
v -0.0616 0 0
v -0.0616 0.2076 0.0674
v -0.0616 0.2182 0
v 0.0616 0 0
v 0.0616 0.2182 0
v 0.0616 0.2076 0.0674
v -0.0616 0.2076 0.0674
v -0.0616 0.1766 0.1283
v 0.0616 0.1766 0.1283
v 0.0616 0.2076 0.0674
v -0.0616 0 0
v -0.0616 0.1766 0.1283
v -0.0616 0.2076 0.0674
v 0.0616 0 0
v 0.0616 0.2076 0.0674
v 0.0616 0.1766 0.1283
v -0.0616 0.1766 0.1283
v -0.0616 0.1283 0.1766
v 0.0616 0.1283 0.1766
v 0.0616 0.1766 0.1283
v -0.0616 0 0
v -0.0616 0.1283 0.1766
v -0.0616 0.1766 0.1283
v 0.0616 0 0
v 0.0616 0.1766 0.1283
v 0.0616 0.1283 0.1766
v -0.0616 0.1283 0.1766
v -0.0616 0.0674 0.2076
v 0.0616 0.0674 0.2076
v 0.0616 0.1283 0.1766
v -0.0616 0 0
v -0.0616 0.0674 0.2076
v -0.0616 0.1283 0.1766
v 0.0616 0 0
v 0.0616 0.1283 0.1766
v 0.0616 0.0674 0.2076
v -0.0616 0.0674 0.2076
v -0.0616 0 0.2182
v 0.0616 0 0.2182
v 0.0616 0.0674 0.2076
v -0.0616 0 0
v -0.0616 0 0.2182
v -0.0616 0.0674 0.2076
v 0.0616 0 0
v 0.0616 0.0674 0.2076
v 0.0616 0 0.2182
v -0.0616 0 0.2182
v -0.0616 -0.0674 0.2076
v 0.0616 -0.0674 0.2076
v 0.0616 0 0.2182
v -0.0616 0 0
v -0.0616 -0.0674 0.2076
v -0.0616 0 0.2182
v 0.0616 0 0
v 0.0616 0 0.2182
v 0.0616 -0.0674 0.2076
v -0.0616 -0.0674 0.2076
v -0.0616 -0.1283 0.1766
v 0.0616 -0.1283 0.1766
v 0.0616 -0.0674 0.2076
v -0.0616 0 0
v -0.0616 -0.1283 0.1766
v -0.0616 -0.0674 0.2076
v 0.0616 0 0
v 0.0616 -0.0674 0.2076
v 0.0616 -0.1283 0.1766
v -0.0616 -0.1283 0.1766
v -0.0616 -0.1766 0.1283
v 0.0616 -0.1766 0.1283
v 0.0616 -0.1283 0.1766
v -0.0616 0 0
v -0.0616 -0.1766 0.1283
v -0.0616 -0.1283 0.1766
v 0.0616 0 0
v 0.0616 -0.1283 0.1766
v 0.0616 -0.1766 0.1283
v -0.0616 -0.1766 0.1283
v -0.0616 -0.2076 0.0674
v 0.0616 -0.2076 0.0674
v 0.0616 -0.1766 0.1283
v -0.0616 0 0
v -0.0616 -0.2076 0.0674
v -0.0616 -0.1766 0.1283
v 0.0616 0 0
v 0.0616 -0.1766 0.1283
v 0.0616 -0.2076 0.0674
v -0.0616 -0.2076 0.0674
v -0.0616 -0.2182 0
v 0.0616 -0.2182 0
v 0.0616 -0.2076 0.0674
v -0.0616 0 0
v -0.0616 -0.2182 0
v -0.0616 -0.2076 0.0674
v 0.0616 0 0
v 0.0616 -0.2076 0.0674
v 0.0616 -0.2182 0
v -0.0616 -0.2182 0
v -0.0616 -0.2076 -0.0674
v 0.0616 -0.2076 -0.0674
v 0.0616 -0.2182 0
v -0.0616 0 0
v -0.0616 -0.2076 -0.0674
v -0.0616 -0.2182 0
v 0.0616 0 0
v 0.0616 -0.2182 0
v 0.0616 -0.2076 -0.0674
v -0.0616 -0.2076 -0.0674
v -0.0616 -0.1766 -0.1283
v 0.0616 -0.1766 -0.1283
v 0.0616 -0.2076 -0.0674
v -0.0616 0 0
v -0.0616 -0.1766 -0.1283
v -0.0616 -0.2076 -0.0674
v 0.0616 0 0
v 0.0616 -0.2076 -0.0674
v 0.0616 -0.1766 -0.1283
v -0.0616 -0.1766 -0.1283
v -0.0616 -0.1283 -0.1766
v 0.0616 -0.1283 -0.1766
v 0.0616 -0.1766 -0.1283
v -0.0616 0 0
v -0.0616 -0.1283 -0.1766
v -0.0616 -0.1766 -0.1283
v 0.0616 0 0
v 0.0616 -0.1766 -0.1283
v 0.0616 -0.1283 -0.1766
v -0.0616 -0.1283 -0.1766
v -0.0616 -0.0674 -0.2076
v 0.0616 -0.0674 -0.2076
v 0.0616 -0.1283 -0.1766
v -0.0616 0 0
v -0.0616 -0.0674 -0.2076
v -0.0616 -0.1283 -0.1766
v 0.0616 0 0
v 0.0616 -0.1283 -0.1766
v 0.0616 -0.0674 -0.2076
v -0.0616 -0.0674 -0.2076
v -0.0616 -0 -0.2182
v 0.0616 -0 -0.2182
v 0.0616 -0.0674 -0.2076
v -0.0616 0 0
v -0.0616 -0 -0.2182
v -0.0616 -0.0674 -0.2076
v 0.0616 0 0
v 0.0616 -0.0674 -0.2076
v 0.0616 -0 -0.2182
v -0.0616 -0 -0.2182
v -0.0616 0.0674 -0.2076
v 0.0616 0.0674 -0.2076
v 0.0616 -0 -0.2182
v -0.0616 0 0
v -0.0616 0.0674 -0.2076
v -0.0616 -0 -0.2182
v 0.0616 0 0
v 0.0616 -0 -0.2182
v 0.0616 0.0674 -0.2076
v -0.0616 0.0674 -0.2076
v -0.0616 0.1283 -0.1766
v 0.0616 0.1283 -0.1766
v 0.0616 0.0674 -0.2076
v -0.0616 0 0
v -0.0616 0.1283 -0.1766
v -0.0616 0.0674 -0.2076
v 0.0616 0 0
v 0.0616 0.0674 -0.2076
v 0.0616 0.1283 -0.1766
v -0.0616 0.1283 -0.1766
v -0.0616 0.1766 -0.1283
v 0.0616 0.1766 -0.1283
v 0.0616 0.1283 -0.1766
v -0.0616 0 0
v -0.0616 0.1766 -0.1283
v -0.0616 0.1283 -0.1766
v 0.0616 0 0
v 0.0616 0.1283 -0.1766
v 0.0616 0.1766 -0.1283
v -0.0616 0.1766 -0.1283
v -0.0616 0.2076 -0.0674
v 0.0616 0.2076 -0.0674
v 0.0616 0.1766 -0.1283
v -0.0616 0 0
v -0.0616 0.2076 -0.0674
v -0.0616 0.1766 -0.1283
v 0.0616 0 0
v 0.0616 0.1766 -0.1283
v 0.0616 0.2076 -0.0674
v -0.0616 0.2076 -0.0674
v -0.0616 0.2182 -0
v 0.0616 0.2182 -0
v 0.0616 0.2076 -0.0674
v -0.0616 0 0
v -0.0616 0.2182 -0
v -0.0616 0.2076 -0.0674
v 0.0616 0 0
v 0.0616 0.2076 -0.0674
v 0.0616 0.2182 -0
vn 0 0.9877 0.1564
vn 0 0.9877 0.1564
vn 0 0.9877 0.1564
vn 0 0.9877 0.1564
vn 0 0.891 0.454
vn 0 0.891 0.454
vn 0 0.891 0.454
vn 0 0.891 0.454
vn 0 0.7071 0.7071
vn 0 0.7071 0.7071
vn 0 0.7071 0.7071
vn 0 0.7071 0.7071
vn 0 0.454 0.891
vn 0 0.454 0.891
vn 0 0.454 0.891
vn 0 0.454 0.891
vn 0 0.1564 0.9877
vn 0 0.1564 0.9877
vn 0 0.1564 0.9877
vn 0 0.1564 0.9877
vn 0 -0.1564 0.9877
vn 0 -0.1564 0.9877
vn 0 -0.1564 0.9877
vn 0 -0.1564 0.9877
vn 0 -0.454 0.891
vn 0 -0.454 0.891
vn 0 -0.454 0.891
vn 0 -0.454 0.891
vn 0 -0.7071 0.7071
vn 0 -0.7071 0.7071
vn 0 -0.7071 0.7071
vn 0 -0.7071 0.7071
vn 0 -0.891 0.454
vn 0 -0.891 0.454
vn 0 -0.891 0.454
vn 0 -0.891 0.454
vn 0 -0.9877 0.1564
vn 0 -0.9877 0.1564
vn 0 -0.9877 0.1564
vn 0 -0.9877 0.1564
vn 0 -0.9877 -0.1564
vn 0 -0.9877 -0.1564
vn 0 -0.9877 -0.1564
vn 0 -0.9877 -0.1564
vn 0 -0.891 -0.454
vn 0 -0.891 -0.454
vn 0 -0.891 -0.454
vn 0 -0.891 -0.454
vn 0 -0.7071 -0.7071
vn 0 -0.7071 -0.7071
vn 0 -0.7071 -0.7071
vn 0 -0.7071 -0.7071
vn 0 -0.454 -0.891
vn 0 -0.454 -0.891
vn 0 -0.454 -0.891
vn 0 -0.454 -0.891
vn 0 -0.1564 -0.9877
vn 0 -0.1564 -0.9877
vn 0 -0.1564 -0.9877
vn 0 -0.1564 -0.9877
vn 0 0.1564 -0.9877
vn 0 0.1564 -0.9877
vn 0 0.1564 -0.9877
vn 0 0.1564 -0.9877
vn 0 0.454 -0.891
vn 0 0.454 -0.891
vn 0 0.454 -0.891
vn 0 0.454 -0.891
vn 0 0.7071 -0.7071
vn 0 0.7071 -0.7071
vn 0 0.7071 -0.7071
vn 0 0.7071 -0.7071
vn 0 0.891 -0.454
vn 0 0.891 -0.454
vn 0 0.891 -0.454
vn 0 0.891 -0.454
vn 0 0.9877 -0.1564
vn 0 0.9877 -0.1564
vn 0 0.9877 -0.1564
vn 0 0.9877 -0.1564
vn 0 0.9877 0.1564
vn 0 0.9877 0.1564
vn 0 0.9877 0.1564
vn 0 0.9877 0.1564
vn -1 0 0
vn -1 0 0
vn -1 0 0
vn 1 0 0
vn 1 0 0
vn 1 0 0
vn 0 0.891 0.454
vn 0 0.891 0.454
vn 0 0.891 0.454
vn 0 0.891 0.454
vn -1 0 0
vn -1 0 0
vn -1 0 0
vn 1 0 0
vn 1 0 0
vn 1 0 0
vn 0 0.7071 0.7071
vn 0 0.7071 0.7071
vn 0 0.7071 0.7071
vn 0 0.7071 0.7071
vn -1 0 0
vn -1 0 0
vn -1 0 0
vn 1 0 0
vn 1 0 0
vn 1 0 0
vn 0 0.454 0.891
vn 0 0.454 0.891
vn 0 0.454 0.891
vn 0 0.454 0.891
vn -1 0 0
vn -1 0 0
vn -1 0 0
vn 1 0 0
vn 1 0 0
vn 1 0 0
vn 0 0.1564 0.9877
vn 0 0.1564 0.9877
vn 0 0.1564 0.9877
vn 0 0.1564 0.9877
vn -1 0 0
vn -1 0 0
vn -1 0 0
vn 1 0 0
vn 1 0 0
vn 1 0 0
vn 0 -0.1564 0.9877
vn 0 -0.1564 0.9877
vn 0 -0.1564 0.9877
vn 0 -0.1564 0.9877
vn -1 0 0
vn -1 0 0
vn -1 0 0
vn 1 0 0
vn 1 0 0
vn 1 0 0
vn 0 -0.454 0.891
vn 0 -0.454 0.891
vn 0 -0.454 0.891
vn 0 -0.454 0.891
vn -1 0 0
vn -1 0 0
vn -1 0 0
vn 1 0 0
vn 1 0 0
vn 1 0 0
vn 0 -0.7071 0.7071
vn 0 -0.7071 0.7071
vn 0 -0.7071 0.7071
vn 0 -0.7071 0.7071
vn -1 0 0
vn -1 0 0
vn -1 0 0
vn 1 0 0
vn 1 0 0
vn 1 0 0
vn 0 -0.891 0.454
vn 0 -0.891 0.454
vn 0 -0.891 0.454
vn 0 -0.891 0.454
vn -1 0 0
vn -1 0 0
vn -1 0 0
vn 1 0 0
vn 1 0 0
vn 1 0 0
vn 0 -0.9877 0.1564
vn 0 -0.9877 0.1564
vn 0 -0.9877 0.1564
vn 0 -0.9877 0.1564
vn -1 0 0
vn -1 0 0
vn -1 0 0
vn 1 0 0
vn 1 0 0
vn 1 0 0
vn 0 -0.9877 -0.1564
vn 0 -0.9877 -0.1564
vn 0 -0.9877 -0.1564
vn 0 -0.9877 -0.1564
vn -1 0 0
vn -1 0 0
vn -1 0 0
vn 1 0 0
vn 1 0 0
vn 1 0 0
vn 0 -0.891 -0.454
vn 0 -0.891 -0.454
vn 0 -0.891 -0.454
vn 0 -0.891 -0.454
vn -1 0 0
vn -1 0 0
vn -1 0 0
vn 1 0 0
vn 1 0 0
vn 1 0 0
vn 0 -0.7071 -0.7071
vn 0 -0.7071 -0.7071
vn 0 -0.7071 -0.7071
vn 0 -0.7071 -0.7071
vn -1 0 0
vn -1 0 0
vn -1 0 0
vn 1 0 0
vn 1 0 0
vn 1 0 0
vn 0 -0.454 -0.891
vn 0 -0.454 -0.891
vn 0 -0.454 -0.891
vn 0 -0.454 -0.891
vn -1 0 0
vn -1 0 0
vn -1 0 0
vn 1 0 0
vn 1 0 0
vn 1 0 0
vn 0 -0.1564 -0.9877
vn 0 -0.1564 -0.9877
vn 0 -0.1564 -0.9877
vn 0 -0.1564 -0.9877
vn -1 0 0
vn -1 0 0
vn -1 0 0
vn 1 0 0
vn 1 0 0
vn 1 0 0
vn 0 0.1564 -0.9877
vn 0 0.1564 -0.9877
vn 0 0.1564 -0.9877
vn 0 0.1564 -0.9877
vn -1 0 0
vn -1 0 0
vn -1 0 0
vn 1 0 0
vn 1 0 0
vn 1 0 0
vn 0 0.454 -0.891
vn 0 0.454 -0.891
vn 0 0.454 -0.891
vn 0 0.454 -0.891
vn -1 0 0
vn -1 0 0
vn -1 0 0
vn 1 0 0
vn 1 0 0
vn 1 0 0
vn 0 0.7071 -0.7071
vn 0 0.7071 -0.7071
vn 0 0.7071 -0.7071
vn 0 0.7071 -0.7071
vn -1 0 0
vn -1 0 0
vn -1 0 0
vn 1 0 0
vn 1 0 0
vn 1 0 0
vn 0 0.891 -0.454
vn 0 0.891 -0.454
vn 0 0.891 -0.454
vn 0 0.891 -0.454
vn -1 0 0
vn -1 0 0
vn -1 0 0
vn 1 0 0
vn 1 0 0
vn 1 0 0
vn 0 0.9877 -0.1564
vn 0 0.9877 -0.1564
vn 0 0.9877 -0.1564
vn 0 0.9877 -0.1564
vn -1 0 0
vn -1 0 0
vn -1 0 0
vn 1 0 0
vn 1 0 0
vn 1 0 0
f 709//709 710//710 711//711
f 709//709 711//711 712//712
f 713//713 714//714 715//715
f 713//713 715//715 716//716
f 717//717 718//718 719//719
f 717//717 719//719 720//720
f 721//721 722//722 723//723
f 721//721 723//723 724//724
f 725//725 726//726 727//727
f 725//725 727//727 728//728
f 729//729 730//730 731//731
f 729//729 731//731 732//732
f 733//733 734//734 735//735
f 733//733 735//735 736//736
f 737//737 738//738 739//739
f 737//737 739//739 740//740
f 741//741 742//742 743//743
f 741//741 743//743 744//744
f 745//745 746//746 747//747
f 745//745 747//747 748//748
f 749//749 750//750 751//751
f 749//749 751//751 752//752
f 753//753 754//754 755//755
f 753//753 755//755 756//756
f 757//757 758//758 759//759
f 757//757 759//759 760//760
f 761//761 762//762 763//763
f 761//761 763//763 764//764
f 765//765 766//766 767//767
f 765//765 767//767 768//768
f 769//769 770//770 771//771
f 769//769 771//771 772//772
f 773//773 774//774 775//775
f 773//773 775//775 776//776
f 777//777 778//778 779//779
f 777//777 779//779 780//780
f 781//781 782//782 783//783
f 781//781 783//783 784//784
f 785//785 786//786 787//787
f 785//785 787//787 788//788
f 789//789 790//790 791//791
f 789//789 791//791 792//792
f 793//793 794//794 795//795
f 796//796 797//797 798//798
f 799//799 800//800 801//801
f 799//799 801//801 802//802
f 803//803 804//804 805//805
f 806//806 807//807 808//808
f 809//809 810//810 811//811
f 809//809 811//811 812//812
f 813//813 814//814 815//815
f 816//816 817//817 818//818
f 819//819 820//820 821//821
f 819//819 821//821 822//822
f 823//823 824//824 825//825
f 826//826 827//827 828//828
f 829//829 830//830 831//831
f 829//829 831//831 832//832
f 833//833 834//834 835//835
f 836//836 837//837 838//838
f 839//839 840//840 841//841
f 839//839 841//841 842//842
f 843//843 844//844 845//845
f 846//846 847//847 848//848
f 849//849 850//850 851//851
f 849//849 851//851 852//852
f 853//853 854//854 855//855
f 856//856 857//857 858//858
f 859//859 860//860 861//861
f 859//859 861//861 862//862
f 863//863 864//864 865//865
f 866//866 867//867 868//868
f 869//869 870//870 871//871
f 869//869 871//871 872//872
f 873//873 874//874 875//875
f 876//876 877//877 878//878
f 879//879 880//880 881//881
f 879//879 881//881 882//882
f 883//883 884//884 885//885
f 886//886 887//887 888//888
f 889//889 890//890 891//891
f 889//889 891//891 892//892
f 893//893 894//894 895//895
f 896//896 897//897 898//898
f 899//899 900//900 901//901
f 899//899 901//901 902//902
f 903//903 904//904 905//905
f 906//906 907//907 908//908
f 909//909 910//910 911//911
f 909//909 911//911 912//912
f 913//913 914//914 915//915
f 916//916 917//917 918//918
f 919//919 920//920 921//921
f 919//919 921//921 922//922
f 923//923 924//924 925//925
f 926//926 927//927 928//928
f 929//929 930//930 931//931
f 929//929 931//931 932//932
f 933//933 934//934 935//935
f 936//936 937//937 938//938
f 939//939 940//940 941//941
f 939//939 941//941 942//942
f 943//943 944//944 945//945
f 946//946 947//947 948//948
f 949//949 950//950 951//951
f 949//949 951//951 952//952
f 953//953 954//954 955//955
f 956//956 957//957 958//958
f 959//959 960//960 961//961
f 959//959 961//961 962//962
f 963//963 964//964 965//965
f 966//966 967//967 968//968
f 969//969 970//970 971//971
f 969//969 971//971 972//972
f 973//973 974//974 975//975
f 976//976 977//977 978//978
f 979//979 980//980 981//981
f 979//979 981//981 982//982
f 983//983 984//984 985//985
f 986//986 987//987 988//988
g wheel_RL
usemtl tire
v -0.14 0.352 0
v -0.14 0.3348 0.1088
v 0.14 0.3348 0.1088
v 0.14 0.352 0
v -0.14 0.3348 0.1088
v -0.14 0.2848 0.2069
v 0.14 0.2848 0.2069
v 0.14 0.3348 0.1088
v -0.14 0.2848 0.2069
v -0.14 0.2069 0.2848
v 0.14 0.2069 0.2848
v 0.14 0.2848 0.2069
v -0.14 0.2069 0.2848
v -0.14 0.1088 0.3348
v 0.14 0.1088 0.3348
v 0.14 0.2069 0.2848
v -0.14 0.1088 0.3348
v -0.14 0 0.352
v 0.14 0 0.352
v 0.14 0.1088 0.3348
v -0.14 0 0.352
v -0.14 -0.1088 0.3348
v 0.14 -0.1088 0.3348
v 0.14 0 0.352
v -0.14 -0.1088 0.3348
v -0.14 -0.2069 0.2848
v 0.14 -0.2069 0.2848
v 0.14 -0.1088 0.3348
v -0.14 -0.2069 0.2848
v -0.14 -0.2848 0.2069
v 0.14 -0.2848 0.2069
v 0.14 -0.2069 0.2848
v -0.14 -0.2848 0.2069
v -0.14 -0.3348 0.1088
v 0.14 -0.3348 0.1088
v 0.14 -0.2848 0.2069
v -0.14 -0.3348 0.1088
v -0.14 -0.352 0
v 0.14 -0.352 0
v 0.14 -0.3348 0.1088
v -0.14 -0.352 0
v -0.14 -0.3348 -0.1088
v 0.14 -0.3348 -0.1088
v 0.14 -0.352 0
v -0.14 -0.3348 -0.1088
v -0.14 -0.2848 -0.2069
v 0.14 -0.2848 -0.2069
v 0.14 -0.3348 -0.1088
v -0.14 -0.2848 -0.2069
v -0.14 -0.2069 -0.2848
v 0.14 -0.2069 -0.2848
v 0.14 -0.2848 -0.2069
v -0.14 -0.2069 -0.2848
v -0.14 -0.1088 -0.3348
v 0.14 -0.1088 -0.3348
v 0.14 -0.2069 -0.2848
v -0.14 -0.1088 -0.3348
v -0.14 -0 -0.352
v 0.14 -0 -0.352
v 0.14 -0.1088 -0.3348
v -0.14 -0 -0.352
v -0.14 0.1088 -0.3348
v 0.14 0.1088 -0.3348
v 0.14 -0 -0.352
v -0.14 0.1088 -0.3348
v -0.14 0.2069 -0.2848
v 0.14 0.2069 -0.2848
v 0.14 0.1088 -0.3348
v -0.14 0.2069 -0.2848
v -0.14 0.2848 -0.2069
v 0.14 0.2848 -0.2069
v 0.14 0.2069 -0.2848
v -0.14 0.2848 -0.2069
v -0.14 0.3348 -0.1088
v 0.14 0.3348 -0.1088
v 0.14 0.2848 -0.2069
v -0.14 0.3348 -0.1088
v -0.14 0.352 -0
v 0.14 0.352 -0
v 0.14 0.3348 -0.1088
v -0.0616 0.2182 0
v -0.0616 0.2076 0.0674
v 0.0616 0.2076 0.0674
v 0.0616 0.2182 0
v -0.0616 0 0
v -0.0616 0.2076 0.0674
v -0.0616 0.2182 0
v 0.0616 0 0
v 0.0616 0.2182 0
v 0.0616 0.2076 0.0674
v -0.0616 0.2076 0.0674
v -0.0616 0.1766 0.1283
v 0.0616 0.1766 0.1283
v 0.0616 0.2076 0.0674
v -0.0616 0 0
v -0.0616 0.1766 0.1283
v -0.0616 0.2076 0.0674
v 0.0616 0 0
v 0.0616 0.2076 0.0674
v 0.0616 0.1766 0.1283
v -0.0616 0.1766 0.1283
v -0.0616 0.1283 0.1766
v 0.0616 0.1283 0.1766
v 0.0616 0.1766 0.1283
v -0.0616 0 0
v -0.0616 0.1283 0.1766
v -0.0616 0.1766 0.1283
v 0.0616 0 0
v 0.0616 0.1766 0.1283
v 0.0616 0.1283 0.1766
v -0.0616 0.1283 0.1766
v -0.0616 0.0674 0.2076
v 0.0616 0.0674 0.2076
v 0.0616 0.1283 0.1766
v -0.0616 0 0
v -0.0616 0.0674 0.2076
v -0.0616 0.1283 0.1766
v 0.0616 0 0
v 0.0616 0.1283 0.1766
v 0.0616 0.0674 0.2076
v -0.0616 0.0674 0.2076
v -0.0616 0 0.2182
v 0.0616 0 0.2182
v 0.0616 0.0674 0.2076
v -0.0616 0 0
v -0.0616 0 0.2182
v -0.0616 0.0674 0.2076
v 0.0616 0 0
v 0.0616 0.0674 0.2076
v 0.0616 0 0.2182
v -0.0616 0 0.2182
v -0.0616 -0.0674 0.2076
v 0.0616 -0.0674 0.2076
v 0.0616 0 0.2182
v -0.0616 0 0
v -0.0616 -0.0674 0.2076
v -0.0616 0 0.2182
v 0.0616 0 0
v 0.0616 0 0.2182
v 0.0616 -0.0674 0.2076
v -0.0616 -0.0674 0.2076
v -0.0616 -0.1283 0.1766
v 0.0616 -0.1283 0.1766
v 0.0616 -0.0674 0.2076
v -0.0616 0 0
v -0.0616 -0.1283 0.1766
v -0.0616 -0.0674 0.2076
v 0.0616 0 0
v 0.0616 -0.0674 0.2076
v 0.0616 -0.1283 0.1766
v -0.0616 -0.1283 0.1766
v -0.0616 -0.1766 0.1283
v 0.0616 -0.1766 0.1283
v 0.0616 -0.1283 0.1766
v -0.0616 0 0
v -0.0616 -0.1766 0.1283
v -0.0616 -0.1283 0.1766
v 0.0616 0 0
v 0.0616 -0.1283 0.1766
v 0.0616 -0.1766 0.1283
v -0.0616 -0.1766 0.1283
v -0.0616 -0.2076 0.0674
v 0.0616 -0.2076 0.0674
v 0.0616 -0.1766 0.1283
v -0.0616 0 0
v -0.0616 -0.2076 0.0674
v -0.0616 -0.1766 0.1283
v 0.0616 0 0
v 0.0616 -0.1766 0.1283
v 0.0616 -0.2076 0.0674
v -0.0616 -0.2076 0.0674
v -0.0616 -0.2182 0
v 0.0616 -0.2182 0
v 0.0616 -0.2076 0.0674
v -0.0616 0 0
v -0.0616 -0.2182 0
v -0.0616 -0.2076 0.0674
v 0.0616 0 0
v 0.0616 -0.2076 0.0674
v 0.0616 -0.2182 0
v -0.0616 -0.2182 0
v -0.0616 -0.2076 -0.0674
v 0.0616 -0.2076 -0.0674
v 0.0616 -0.2182 0
v -0.0616 0 0
v -0.0616 -0.2076 -0.0674
v -0.0616 -0.2182 0
v 0.0616 0 0
v 0.0616 -0.2182 0
v 0.0616 -0.2076 -0.0674
v -0.0616 -0.2076 -0.0674
v -0.0616 -0.1766 -0.1283
v 0.0616 -0.1766 -0.1283
v 0.0616 -0.2076 -0.0674
v -0.0616 0 0
v -0.0616 -0.1766 -0.1283
v -0.0616 -0.2076 -0.0674
v 0.0616 0 0
v 0.0616 -0.2076 -0.0674
v 0.0616 -0.1766 -0.1283
v -0.0616 -0.1766 -0.1283
v -0.0616 -0.1283 -0.1766
v 0.0616 -0.1283 -0.1766
v 0.0616 -0.1766 -0.1283
v -0.0616 0 0
v -0.0616 -0.1283 -0.1766
v -0.0616 -0.1766 -0.1283
v 0.0616 0 0
v 0.0616 -0.1766 -0.1283
v 0.0616 -0.1283 -0.1766
v -0.0616 -0.1283 -0.1766
v -0.0616 -0.0674 -0.2076
v 0.0616 -0.0674 -0.2076
v 0.0616 -0.1283 -0.1766
v -0.0616 0 0
v -0.0616 -0.0674 -0.2076
v -0.0616 -0.1283 -0.1766
v 0.0616 0 0
v 0.0616 -0.1283 -0.1766
v 0.0616 -0.0674 -0.2076
v -0.0616 -0.0674 -0.2076
v -0.0616 -0 -0.2182
v 0.0616 -0 -0.2182
v 0.0616 -0.0674 -0.2076
v -0.0616 0 0
v -0.0616 -0 -0.2182
v -0.0616 -0.0674 -0.2076
v 0.0616 0 0
v 0.0616 -0.0674 -0.2076
v 0.0616 -0 -0.2182
v -0.0616 -0 -0.2182
v -0.0616 0.0674 -0.2076
v 0.0616 0.0674 -0.2076
v 0.0616 -0 -0.2182
v -0.0616 0 0
v -0.0616 0.0674 -0.2076
v -0.0616 -0 -0.2182
v 0.0616 0 0
v 0.0616 -0 -0.2182
v 0.0616 0.0674 -0.2076
v -0.0616 0.0674 -0.2076
v -0.0616 0.1283 -0.1766
v 0.0616 0.1283 -0.1766
v 0.0616 0.0674 -0.2076
v -0.0616 0 0
v -0.0616 0.1283 -0.1766
v -0.0616 0.0674 -0.2076
v 0.0616 0 0
v 0.0616 0.0674 -0.2076
v 0.0616 0.1283 -0.1766
v -0.0616 0.1283 -0.1766
v -0.0616 0.1766 -0.1283
v 0.0616 0.1766 -0.1283
v 0.0616 0.1283 -0.1766
v -0.0616 0 0
v -0.0616 0.1766 -0.1283
v -0.0616 0.1283 -0.1766
v 0.0616 0 0
v 0.0616 0.1283 -0.1766
v 0.0616 0.1766 -0.1283
v -0.0616 0.1766 -0.1283
v -0.0616 0.2076 -0.0674
v 0.0616 0.2076 -0.0674
v 0.0616 0.1766 -0.1283
v -0.0616 0 0
v -0.0616 0.2076 -0.0674
v -0.0616 0.1766 -0.1283
v 0.0616 0 0
v 0.0616 0.1766 -0.1283
v 0.0616 0.2076 -0.0674
v -0.0616 0.2076 -0.0674
v -0.0616 0.2182 -0
v 0.0616 0.2182 -0
v 0.0616 0.2076 -0.0674
v -0.0616 0 0
v -0.0616 0.2182 -0
v -0.0616 0.2076 -0.0674
v 0.0616 0 0
v 0.0616 0.2076 -0.0674
v 0.0616 0.2182 -0
vn 0 0.9877 0.1564
vn 0 0.9877 0.1564
vn 0 0.9877 0.1564
vn 0 0.9877 0.1564
vn 0 0.891 0.454
vn 0 0.891 0.454
vn 0 0.891 0.454
vn 0 0.891 0.454
vn 0 0.7071 0.7071
vn 0 0.7071 0.7071
vn 0 0.7071 0.7071
vn 0 0.7071 0.7071
vn 0 0.454 0.891
vn 0 0.454 0.891
vn 0 0.454 0.891
vn 0 0.454 0.891
vn 0 0.1564 0.9877
vn 0 0.1564 0.9877
vn 0 0.1564 0.9877
vn 0 0.1564 0.9877
vn 0 -0.1564 0.9877
vn 0 -0.1564 0.9877
vn 0 -0.1564 0.9877
vn 0 -0.1564 0.9877
vn 0 -0.454 0.891
vn 0 -0.454 0.891
vn 0 -0.454 0.891
vn 0 -0.454 0.891
vn 0 -0.7071 0.7071
vn 0 -0.7071 0.7071
vn 0 -0.7071 0.7071
vn 0 -0.7071 0.7071
vn 0 -0.891 0.454
vn 0 -0.891 0.454
vn 0 -0.891 0.454
vn 0 -0.891 0.454
vn 0 -0.9877 0.1564
vn 0 -0.9877 0.1564
vn 0 -0.9877 0.1564
vn 0 -0.9877 0.1564
vn 0 -0.9877 -0.1564
vn 0 -0.9877 -0.1564
vn 0 -0.9877 -0.1564
vn 0 -0.9877 -0.1564
vn 0 -0.891 -0.454
vn 0 -0.891 -0.454
vn 0 -0.891 -0.454
vn 0 -0.891 -0.454
vn 0 -0.7071 -0.7071
vn 0 -0.7071 -0.7071
vn 0 -0.7071 -0.7071
vn 0 -0.7071 -0.7071
vn 0 -0.454 -0.891
vn 0 -0.454 -0.891
vn 0 -0.454 -0.891
vn 0 -0.454 -0.891
vn 0 -0.1564 -0.9877
vn 0 -0.1564 -0.9877
vn 0 -0.1564 -0.9877
vn 0 -0.1564 -0.9877
vn 0 0.1564 -0.9877
vn 0 0.1564 -0.9877
vn 0 0.1564 -0.9877
vn 0 0.1564 -0.9877
vn 0 0.454 -0.891
vn 0 0.454 -0.891
vn 0 0.454 -0.891
vn 0 0.454 -0.891
vn 0 0.7071 -0.7071
vn 0 0.7071 -0.7071
vn 0 0.7071 -0.7071
vn 0 0.7071 -0.7071
vn 0 0.891 -0.454
vn 0 0.891 -0.454
vn 0 0.891 -0.454
vn 0 0.891 -0.454
vn 0 0.9877 -0.1564
vn 0 0.9877 -0.1564
vn 0 0.9877 -0.1564
vn 0 0.9877 -0.1564
vn 0 0.9877 0.1564
vn 0 0.9877 0.1564
vn 0 0.9877 0.1564
vn 0 0.9877 0.1564
vn -1 0 0
vn -1 0 0
vn -1 0 0
vn 1 0 0
vn 1 0 0
vn 1 0 0
vn 0 0.891 0.454
vn 0 0.891 0.454
vn 0 0.891 0.454
vn 0 0.891 0.454
vn -1 0 0
vn -1 0 0
vn -1 0 0
vn 1 0 0
vn 1 0 0
vn 1 0 0
vn 0 0.7071 0.7071
vn 0 0.7071 0.7071
vn 0 0.7071 0.7071
vn 0 0.7071 0.7071
vn -1 0 0
vn -1 0 0
vn -1 0 0
vn 1 0 0
vn 1 0 0
vn 1 0 0
vn 0 0.454 0.891
vn 0 0.454 0.891
vn 0 0.454 0.891
vn 0 0.454 0.891
vn -1 0 0
vn -1 0 0
vn -1 0 0
vn 1 0 0
vn 1 0 0
vn 1 0 0
vn 0 0.1564 0.9877
vn 0 0.1564 0.9877
vn 0 0.1564 0.9877
vn 0 0.1564 0.9877
vn -1 0 0
vn -1 0 0
vn -1 0 0
vn 1 0 0
vn 1 0 0
vn 1 0 0
vn 0 -0.1564 0.9877
vn 0 -0.1564 0.9877
vn 0 -0.1564 0.9877
vn 0 -0.1564 0.9877
vn -1 0 0
vn -1 0 0
vn -1 0 0
vn 1 0 0
vn 1 0 0
vn 1 0 0
vn 0 -0.454 0.891
vn 0 -0.454 0.891
vn 0 -0.454 0.891
vn 0 -0.454 0.891
vn -1 0 0
vn -1 0 0
vn -1 0 0
vn 1 0 0
vn 1 0 0
vn 1 0 0
vn 0 -0.7071 0.7071
vn 0 -0.7071 0.7071
vn 0 -0.7071 0.7071
vn 0 -0.7071 0.7071
vn -1 0 0
vn -1 0 0
vn -1 0 0
vn 1 0 0
vn 1 0 0
vn 1 0 0
vn 0 -0.891 0.454
vn 0 -0.891 0.454
vn 0 -0.891 0.454
vn 0 -0.891 0.454
vn -1 0 0
vn -1 0 0
vn -1 0 0
vn 1 0 0
vn 1 0 0
vn 1 0 0
vn 0 -0.9877 0.1564
vn 0 -0.9877 0.1564
vn 0 -0.9877 0.1564
vn 0 -0.9877 0.1564
vn -1 0 0
vn -1 0 0
vn -1 0 0
vn 1 0 0
vn 1 0 0
vn 1 0 0
vn 0 -0.9877 -0.1564
vn 0 -0.9877 -0.1564
vn 0 -0.9877 -0.1564
vn 0 -0.9877 -0.1564
vn -1 0 0
vn -1 0 0
vn -1 0 0
vn 1 0 0
vn 1 0 0
vn 1 0 0
vn 0 -0.891 -0.454
vn 0 -0.891 -0.454
vn 0 -0.891 -0.454
vn 0 -0.891 -0.454
vn -1 0 0
vn -1 0 0
vn -1 0 0
vn 1 0 0
vn 1 0 0
vn 1 0 0
vn 0 -0.7071 -0.7071
vn 0 -0.7071 -0.7071
vn 0 -0.7071 -0.7071
vn 0 -0.7071 -0.7071
vn -1 0 0
vn -1 0 0
vn -1 0 0
vn 1 0 0
vn 1 0 0
vn 1 0 0
vn 0 -0.454 -0.891
vn 0 -0.454 -0.891
vn 0 -0.454 -0.891
vn 0 -0.454 -0.891
vn -1 0 0
vn -1 0 0
vn -1 0 0
vn 1 0 0
vn 1 0 0
vn 1 0 0
vn 0 -0.1564 -0.9877
vn 0 -0.1564 -0.9877
vn 0 -0.1564 -0.9877
vn 0 -0.1564 -0.9877
vn -1 0 0
vn -1 0 0
vn -1 0 0
vn 1 0 0
vn 1 0 0
vn 1 0 0
vn 0 0.1564 -0.9877
vn 0 0.1564 -0.9877
vn 0 0.1564 -0.9877
vn 0 0.1564 -0.9877
vn -1 0 0
vn -1 0 0
vn -1 0 0
vn 1 0 0
vn 1 0 0
vn 1 0 0
vn 0 0.454 -0.891
vn 0 0.454 -0.891
vn 0 0.454 -0.891
vn 0 0.454 -0.891
vn -1 0 0
vn -1 0 0
vn -1 0 0
vn 1 0 0
vn 1 0 0
vn 1 0 0
vn 0 0.7071 -0.7071
vn 0 0.7071 -0.7071
vn 0 0.7071 -0.7071
vn 0 0.7071 -0.7071
vn -1 0 0
vn -1 0 0
vn -1 0 0
vn 1 0 0
vn 1 0 0
vn 1 0 0
vn 0 0.891 -0.454
vn 0 0.891 -0.454
vn 0 0.891 -0.454
vn 0 0.891 -0.454
vn -1 0 0
vn -1 0 0
vn -1 0 0
vn 1 0 0
vn 1 0 0
vn 1 0 0
vn 0 0.9877 -0.1564
vn 0 0.9877 -0.1564
vn 0 0.9877 -0.1564
vn 0 0.9877 -0.1564
vn -1 0 0
vn -1 0 0
vn -1 0 0
vn 1 0 0
vn 1 0 0
vn 1 0 0
f 989//989 990//990 991//991
f 989//989 991//991 992//992
f 993//993 994//994 995//995
f 993//993 995//995 996//996
f 997//997 998//998 999//999
f 997//997 999//999 1000//1000
f 1001//1001 1002//1002 1003//1003
f 1001//1001 1003//1003 1004//1004
f 1005//1005 1006//1006 1007//1007
f 1005//1005 1007//1007 1008//1008
f 1009//1009 1010//1010 1011//1011
f 1009//1009 1011//1011 1012//1012
f 1013//1013 1014//1014 1015//1015
f 1013//1013 1015//1015 1016//1016
f 1017//1017 1018//1018 1019//1019
f 1017//1017 1019//1019 1020//1020
f 1021//1021 1022//1022 1023//1023
f 1021//1021 1023//1023 1024//1024
f 1025//1025 1026//1026 1027//1027
f 1025//1025 1027//1027 1028//1028
f 1029//1029 1030//1030 1031//1031
f 1029//1029 1031//1031 1032//1032
f 1033//1033 1034//1034 1035//1035
f 1033//1033 1035//1035 1036//1036
f 1037//1037 1038//1038 1039//1039
f 1037//1037 1039//1039 1040//1040
f 1041//1041 1042//1042 1043//1043
f 1041//1041 1043//1043 1044//1044
f 1045//1045 1046//1046 1047//1047
f 1045//1045 1047//1047 1048//1048
f 1049//1049 1050//1050 1051//1051
f 1049//1049 1051//1051 1052//1052
f 1053//1053 1054//1054 1055//1055
f 1053//1053 1055//1055 1056//1056
f 1057//1057 1058//1058 1059//1059
f 1057//1057 1059//1059 1060//1060
f 1061//1061 1062//1062 1063//1063
f 1061//1061 1063//1063 1064//1064
f 1065//1065 1066//1066 1067//1067
f 1065//1065 1067//1067 1068//1068
f 1069//1069 1070//1070 1071//1071
f 1069//1069 1071//1071 1072//1072
f 1073//1073 1074//1074 1075//1075
f 1076//1076 1077//1077 1078//1078
f 1079//1079 1080//1080 1081//1081
f 1079//1079 1081//1081 1082//1082
f 1083//1083 1084//1084 1085//1085
f 1086//1086 1087//1087 1088//1088
f 1089//1089 1090//1090 1091//1091
f 1089//1089 1091//1091 1092//1092
f 1093//1093 1094//1094 1095//1095
f 1096//1096 1097//1097 1098//1098
f 1099//1099 1100//1100 1101//1101
f 1099//1099 1101//1101 1102//1102
f 1103//1103 1104//1104 1105//1105
f 1106//1106 1107//1107 1108//1108
f 1109//1109 1110//1110 1111//1111
f 1109//1109 1111//1111 1112//1112
f 1113//1113 1114//1114 1115//1115
f 1116//1116 1117//1117 1118//1118
f 1119//1119 1120//1120 1121//1121
f 1119//1119 1121//1121 1122//1122
f 1123//1123 1124//1124 1125//1125
f 1126//1126 1127//1127 1128//1128
f 1129//1129 1130//1130 1131//1131
f 1129//1129 1131//1131 1132//1132
f 1133//1133 1134//1134 1135//1135
f 1136//1136 1137//1137 1138//1138
f 1139//1139 1140//1140 1141//1141
f 1139//1139 1141//1141 1142//1142
f 1143//1143 1144//1144 1145//1145
f 1146//1146 1147//1147 1148//1148
f 1149//1149 1150//1150 1151//1151
f 1149//1149 1151//1151 1152//1152
f 1153//1153 1154//1154 1155//1155
f 1156//1156 1157//1157 1158//1158
f 1159//1159 1160//1160 1161//1161
f 1159//1159 1161//1161 1162//1162
f 1163//1163 1164//1164 1165//1165
f 1166//1166 1167//1167 1168//1168
f 1169//1169 1170//1170 1171//1171
f 1169//1169 1171//1171 1172//1172
f 1173//1173 1174//1174 1175//1175
f 1176//1176 1177//1177 1178//1178
f 1179//1179 1180//1180 1181//1181
f 1179//1179 1181//1181 1182//1182
f 1183//1183 1184//1184 1185//1185
f 1186//1186 1187//1187 1188//1188
f 1189//1189 1190//1190 1191//1191
f 1189//1189 1191//1191 1192//1192
f 1193//1193 1194//1194 1195//1195
f 1196//1196 1197//1197 1198//1198
f 1199//1199 1200//1200 1201//1201
f 1199//1199 1201//1201 1202//1202
f 1203//1203 1204//1204 1205//1205
f 1206//1206 1207//1207 1208//1208
f 1209//1209 1210//1210 1211//1211
f 1209//1209 1211//1211 1212//1212
f 1213//1213 1214//1214 1215//1215
f 1216//1216 1217//1217 1218//1218
f 1219//1219 1220//1220 1221//1221
f 1219//1219 1221//1221 1222//1222
f 1223//1223 1224//1224 1225//1225
f 1226//1226 1227//1227 1228//1228
f 1229//1229 1230//1230 1231//1231
f 1229//1229 1231//1231 1232//1232
f 1233//1233 1234//1234 1235//1235
f 1236//1236 1237//1237 1238//1238
f 1239//1239 1240//1240 1241//1241
f 1239//1239 1241//1241 1242//1242
f 1243//1243 1244//1244 1245//1245
f 1246//1246 1247//1247 1248//1248
f 1249//1249 1250//1250 1251//1251
f 1249//1249 1251//1251 1252//1252
f 1253//1253 1254//1254 1255//1255
f 1256//1256 1257//1257 1258//1258
f 1259//1259 1260//1260 1261//1261
f 1259//1259 1261//1261 1262//1262
f 1263//1263 1264//1264 1265//1265
f 1266//1266 1267//1267 1268//1268
g wheel_RR
usemtl tire
v -0.14 0.352 0
v -0.14 0.3348 0.1088
v 0.14 0.3348 0.1088
v 0.14 0.352 0
v -0.14 0.3348 0.1088
v -0.14 0.2848 0.2069
v 0.14 0.2848 0.2069
v 0.14 0.3348 0.1088
v -0.14 0.2848 0.2069
v -0.14 0.2069 0.2848
v 0.14 0.2069 0.2848
v 0.14 0.2848 0.2069
v -0.14 0.2069 0.2848
v -0.14 0.1088 0.3348
v 0.14 0.1088 0.3348
v 0.14 0.2069 0.2848
v -0.14 0.1088 0.3348
v -0.14 0 0.352
v 0.14 0 0.352
v 0.14 0.1088 0.3348
v -0.14 0 0.352
v -0.14 -0.1088 0.3348
v 0.14 -0.1088 0.3348
v 0.14 0 0.352
v -0.14 -0.1088 0.3348
v -0.14 -0.2069 0.2848
v 0.14 -0.2069 0.2848
v 0.14 -0.1088 0.3348
v -0.14 -0.2069 0.2848
v -0.14 -0.2848 0.2069
v 0.14 -0.2848 0.2069
v 0.14 -0.2069 0.2848
v -0.14 -0.2848 0.2069
v -0.14 -0.3348 0.1088
v 0.14 -0.3348 0.1088
v 0.14 -0.2848 0.2069
v -0.14 -0.3348 0.1088
v -0.14 -0.352 0
v 0.14 -0.352 0
v 0.14 -0.3348 0.1088
v -0.14 -0.352 0
v -0.14 -0.3348 -0.1088
v 0.14 -0.3348 -0.1088
v 0.14 -0.352 0
v -0.14 -0.3348 -0.1088
v -0.14 -0.2848 -0.2069
v 0.14 -0.2848 -0.2069
v 0.14 -0.3348 -0.1088
v -0.14 -0.2848 -0.2069
v -0.14 -0.2069 -0.2848
v 0.14 -0.2069 -0.2848
v 0.14 -0.2848 -0.2069
v -0.14 -0.2069 -0.2848
v -0.14 -0.1088 -0.3348
v 0.14 -0.1088 -0.3348
v 0.14 -0.2069 -0.2848
v -0.14 -0.1088 -0.3348
v -0.14 -0 -0.352
v 0.14 -0 -0.352
v 0.14 -0.1088 -0.3348
v -0.14 -0 -0.352
v -0.14 0.1088 -0.3348
v 0.14 0.1088 -0.3348
v 0.14 -0 -0.352
v -0.14 0.1088 -0.3348
v -0.14 0.2069 -0.2848
v 0.14 0.2069 -0.2848
v 0.14 0.1088 -0.3348
v -0.14 0.2069 -0.2848
v -0.14 0.2848 -0.2069
v 0.14 0.2848 -0.2069
v 0.14 0.2069 -0.2848
v -0.14 0.2848 -0.2069
v -0.14 0.3348 -0.1088
v 0.14 0.3348 -0.1088
v 0.14 0.2848 -0.2069
v -0.14 0.3348 -0.1088
v -0.14 0.352 -0
v 0.14 0.352 -0
v 0.14 0.3348 -0.1088
v -0.0616 0.2182 0
v -0.0616 0.2076 0.0674
v 0.0616 0.2076 0.0674
v 0.0616 0.2182 0
v -0.0616 0 0
v -0.0616 0.2076 0.0674
v -0.0616 0.2182 0
v 0.0616 0 0
v 0.0616 0.2182 0
v 0.0616 0.2076 0.0674
v -0.0616 0.2076 0.0674
v -0.0616 0.1766 0.1283
v 0.0616 0.1766 0.1283
v 0.0616 0.2076 0.0674
v -0.0616 0 0
v -0.0616 0.1766 0.1283
v -0.0616 0.2076 0.0674
v 0.0616 0 0
v 0.0616 0.2076 0.0674
v 0.0616 0.1766 0.1283
v -0.0616 0.1766 0.1283
v -0.0616 0.1283 0.1766
v 0.0616 0.1283 0.1766
v 0.0616 0.1766 0.1283
v -0.0616 0 0
v -0.0616 0.1283 0.1766
v -0.0616 0.1766 0.1283
v 0.0616 0 0
v 0.0616 0.1766 0.1283
v 0.0616 0.1283 0.1766
v -0.0616 0.1283 0.1766
v -0.0616 0.0674 0.2076
v 0.0616 0.0674 0.2076
v 0.0616 0.1283 0.1766
v -0.0616 0 0
v -0.0616 0.0674 0.2076
v -0.0616 0.1283 0.1766
v 0.0616 0 0
v 0.0616 0.1283 0.1766
v 0.0616 0.0674 0.2076
v -0.0616 0.0674 0.2076
v -0.0616 0 0.2182
v 0.0616 0 0.2182
v 0.0616 0.0674 0.2076
v -0.0616 0 0
v -0.0616 0 0.2182
v -0.0616 0.0674 0.2076
v 0.0616 0 0
v 0.0616 0.0674 0.2076
v 0.0616 0 0.2182
v -0.0616 0 0.2182
v -0.0616 -0.0674 0.2076
v 0.0616 -0.0674 0.2076
v 0.0616 0 0.2182
v -0.0616 0 0
v -0.0616 -0.0674 0.2076
v -0.0616 0 0.2182
v 0.0616 0 0
v 0.0616 0 0.2182
v 0.0616 -0.0674 0.2076
v -0.0616 -0.0674 0.2076
v -0.0616 -0.1283 0.1766
v 0.0616 -0.1283 0.1766
v 0.0616 -0.0674 0.2076
v -0.0616 0 0
v -0.0616 -0.1283 0.1766
v -0.0616 -0.0674 0.2076
v 0.0616 0 0
v 0.0616 -0.0674 0.2076
v 0.0616 -0.1283 0.1766
v -0.0616 -0.1283 0.1766
v -0.0616 -0.1766 0.1283
v 0.0616 -0.1766 0.1283
v 0.0616 -0.1283 0.1766
v -0.0616 0 0
v -0.0616 -0.1766 0.1283
v -0.0616 -0.1283 0.1766
v 0.0616 0 0
v 0.0616 -0.1283 0.1766
v 0.0616 -0.1766 0.1283
v -0.0616 -0.1766 0.1283
v -0.0616 -0.2076 0.0674
v 0.0616 -0.2076 0.0674
v 0.0616 -0.1766 0.1283
v -0.0616 0 0
v -0.0616 -0.2076 0.0674
v -0.0616 -0.1766 0.1283
v 0.0616 0 0
v 0.0616 -0.1766 0.1283
v 0.0616 -0.2076 0.0674
v -0.0616 -0.2076 0.0674
v -0.0616 -0.2182 0
v 0.0616 -0.2182 0
v 0.0616 -0.2076 0.0674
v -0.0616 0 0
v -0.0616 -0.2182 0
v -0.0616 -0.2076 0.0674
v 0.0616 0 0
v 0.0616 -0.2076 0.0674
v 0.0616 -0.2182 0
v -0.0616 -0.2182 0
v -0.0616 -0.2076 -0.0674
v 0.0616 -0.2076 -0.0674
v 0.0616 -0.2182 0
v -0.0616 0 0
v -0.0616 -0.2076 -0.0674
v -0.0616 -0.2182 0
v 0.0616 0 0
v 0.0616 -0.2182 0
v 0.0616 -0.2076 -0.0674
v -0.0616 -0.2076 -0.0674
v -0.0616 -0.1766 -0.1283
v 0.0616 -0.1766 -0.1283
v 0.0616 -0.2076 -0.0674
v -0.0616 0 0
v -0.0616 -0.1766 -0.1283
v -0.0616 -0.2076 -0.0674
v 0.0616 0 0
v 0.0616 -0.2076 -0.0674
v 0.0616 -0.1766 -0.1283
v -0.0616 -0.1766 -0.1283
v -0.0616 -0.1283 -0.1766
v 0.0616 -0.1283 -0.1766
v 0.0616 -0.1766 -0.1283
v -0.0616 0 0
v -0.0616 -0.1283 -0.1766
v -0.0616 -0.1766 -0.1283
v 0.0616 0 0
v 0.0616 -0.1766 -0.1283
v 0.0616 -0.1283 -0.1766
v -0.0616 -0.1283 -0.1766
v -0.0616 -0.0674 -0.2076
v 0.0616 -0.0674 -0.2076
v 0.0616 -0.1283 -0.1766
v -0.0616 0 0
v -0.0616 -0.0674 -0.2076
v -0.0616 -0.1283 -0.1766
v 0.0616 0 0
v 0.0616 -0.1283 -0.1766
v 0.0616 -0.0674 -0.2076
v -0.0616 -0.0674 -0.2076
v -0.0616 -0 -0.2182
v 0.0616 -0 -0.2182
v 0.0616 -0.0674 -0.2076
v -0.0616 0 0
v -0.0616 -0 -0.2182
v -0.0616 -0.0674 -0.2076
v 0.0616 0 0
v 0.0616 -0.0674 -0.2076
v 0.0616 -0 -0.2182
v -0.0616 -0 -0.2182
v -0.0616 0.0674 -0.2076
v 0.0616 0.0674 -0.2076
v 0.0616 -0 -0.2182
v -0.0616 0 0
v -0.0616 0.0674 -0.2076
v -0.0616 -0 -0.2182
v 0.0616 0 0
v 0.0616 -0 -0.2182
v 0.0616 0.0674 -0.2076
v -0.0616 0.0674 -0.2076
v -0.0616 0.1283 -0.1766
v 0.0616 0.1283 -0.1766
v 0.0616 0.0674 -0.2076
v -0.0616 0 0
v -0.0616 0.1283 -0.1766
v -0.0616 0.0674 -0.2076
v 0.0616 0 0
v 0.0616 0.0674 -0.2076
v 0.0616 0.1283 -0.1766
v -0.0616 0.1283 -0.1766
v -0.0616 0.1766 -0.1283
v 0.0616 0.1766 -0.1283
v 0.0616 0.1283 -0.1766
v -0.0616 0 0
v -0.0616 0.1766 -0.1283
v -0.0616 0.1283 -0.1766
v 0.0616 0 0
v 0.0616 0.1283 -0.1766
v 0.0616 0.1766 -0.1283
v -0.0616 0.1766 -0.1283
v -0.0616 0.2076 -0.0674
v 0.0616 0.2076 -0.0674
v 0.0616 0.1766 -0.1283
v -0.0616 0 0
v -0.0616 0.2076 -0.0674
v -0.0616 0.1766 -0.1283
v 0.0616 0 0
v 0.0616 0.1766 -0.1283
v 0.0616 0.2076 -0.0674
v -0.0616 0.2076 -0.0674
v -0.0616 0.2182 -0
v 0.0616 0.2182 -0
v 0.0616 0.2076 -0.0674
v -0.0616 0 0
v -0.0616 0.2182 -0
v -0.0616 0.2076 -0.0674
v 0.0616 0 0
v 0.0616 0.2076 -0.0674
v 0.0616 0.2182 -0
vn 0 0.9877 0.1564
vn 0 0.9877 0.1564
vn 0 0.9877 0.1564
vn 0 0.9877 0.1564
vn 0 0.891 0.454
vn 0 0.891 0.454
vn 0 0.891 0.454
vn 0 0.891 0.454
vn 0 0.7071 0.7071
vn 0 0.7071 0.7071
vn 0 0.7071 0.7071
vn 0 0.7071 0.7071
vn 0 0.454 0.891
vn 0 0.454 0.891
vn 0 0.454 0.891
vn 0 0.454 0.891
vn 0 0.1564 0.9877
vn 0 0.1564 0.9877
vn 0 0.1564 0.9877
vn 0 0.1564 0.9877
vn 0 -0.1564 0.9877
vn 0 -0.1564 0.9877
vn 0 -0.1564 0.9877
vn 0 -0.1564 0.9877
vn 0 -0.454 0.891
vn 0 -0.454 0.891
vn 0 -0.454 0.891
vn 0 -0.454 0.891
vn 0 -0.7071 0.7071
vn 0 -0.7071 0.7071
vn 0 -0.7071 0.7071
vn 0 -0.7071 0.7071
vn 0 -0.891 0.454
vn 0 -0.891 0.454
vn 0 -0.891 0.454
vn 0 -0.891 0.454
vn 0 -0.9877 0.1564
vn 0 -0.9877 0.1564
vn 0 -0.9877 0.1564
vn 0 -0.9877 0.1564
vn 0 -0.9877 -0.1564
vn 0 -0.9877 -0.1564
vn 0 -0.9877 -0.1564
vn 0 -0.9877 -0.1564
vn 0 -0.891 -0.454
vn 0 -0.891 -0.454
vn 0 -0.891 -0.454
vn 0 -0.891 -0.454
vn 0 -0.7071 -0.7071
vn 0 -0.7071 -0.7071
vn 0 -0.7071 -0.7071
vn 0 -0.7071 -0.7071
vn 0 -0.454 -0.891
vn 0 -0.454 -0.891
vn 0 -0.454 -0.891
vn 0 -0.454 -0.891
vn 0 -0.1564 -0.9877
vn 0 -0.1564 -0.9877
vn 0 -0.1564 -0.9877
vn 0 -0.1564 -0.9877
vn 0 0.1564 -0.9877
vn 0 0.1564 -0.9877
vn 0 0.1564 -0.9877
vn 0 0.1564 -0.9877
vn 0 0.454 -0.891
vn 0 0.454 -0.891
vn 0 0.454 -0.891
vn 0 0.454 -0.891
vn 0 0.7071 -0.7071
vn 0 0.7071 -0.7071
vn 0 0.7071 -0.7071
vn 0 0.7071 -0.7071
vn 0 0.891 -0.454
vn 0 0.891 -0.454
vn 0 0.891 -0.454
vn 0 0.891 -0.454
vn 0 0.9877 -0.1564
vn 0 0.9877 -0.1564
vn 0 0.9877 -0.1564
vn 0 0.9877 -0.1564
vn 0 0.9877 0.1564
vn 0 0.9877 0.1564
vn 0 0.9877 0.1564
vn 0 0.9877 0.1564
vn -1 0 0
vn -1 0 0
vn -1 0 0
vn 1 0 0
vn 1 0 0
vn 1 0 0
vn 0 0.891 0.454
vn 0 0.891 0.454
vn 0 0.891 0.454
vn 0 0.891 0.454
vn -1 0 0
vn -1 0 0
vn -1 0 0
vn 1 0 0
vn 1 0 0
vn 1 0 0
vn 0 0.7071 0.7071
vn 0 0.7071 0.7071
vn 0 0.7071 0.7071
vn 0 0.7071 0.7071
vn -1 0 0
vn -1 0 0
vn -1 0 0
vn 1 0 0
vn 1 0 0
vn 1 0 0
vn 0 0.454 0.891
vn 0 0.454 0.891
vn 0 0.454 0.891
vn 0 0.454 0.891
vn -1 0 0
vn -1 0 0
vn -1 0 0
vn 1 0 0
vn 1 0 0
vn 1 0 0
vn 0 0.1564 0.9877
vn 0 0.1564 0.9877
vn 0 0.1564 0.9877
vn 0 0.1564 0.9877
vn -1 0 0
vn -1 0 0
vn -1 0 0
vn 1 0 0
vn 1 0 0
vn 1 0 0
vn 0 -0.1564 0.9877
vn 0 -0.1564 0.9877
vn 0 -0.1564 0.9877
vn 0 -0.1564 0.9877
vn -1 0 0
vn -1 0 0
vn -1 0 0
vn 1 0 0
vn 1 0 0
vn 1 0 0
vn 0 -0.454 0.891
vn 0 -0.454 0.891
vn 0 -0.454 0.891
vn 0 -0.454 0.891
vn -1 0 0
vn -1 0 0
vn -1 0 0
vn 1 0 0
vn 1 0 0
vn 1 0 0
vn 0 -0.7071 0.7071
vn 0 -0.7071 0.7071
vn 0 -0.7071 0.7071
vn 0 -0.7071 0.7071
vn -1 0 0
vn -1 0 0
vn -1 0 0
vn 1 0 0
vn 1 0 0
vn 1 0 0
vn 0 -0.891 0.454
vn 0 -0.891 0.454
vn 0 -0.891 0.454
vn 0 -0.891 0.454
vn -1 0 0
vn -1 0 0
vn -1 0 0
vn 1 0 0
vn 1 0 0
vn 1 0 0
vn 0 -0.9877 0.1564
vn 0 -0.9877 0.1564
vn 0 -0.9877 0.1564
vn 0 -0.9877 0.1564
vn -1 0 0
vn -1 0 0
vn -1 0 0
vn 1 0 0
vn 1 0 0
vn 1 0 0
vn 0 -0.9877 -0.1564
vn 0 -0.9877 -0.1564
vn 0 -0.9877 -0.1564
vn 0 -0.9877 -0.1564
vn -1 0 0
vn -1 0 0
vn -1 0 0
vn 1 0 0
vn 1 0 0
vn 1 0 0
vn 0 -0.891 -0.454
vn 0 -0.891 -0.454
vn 0 -0.891 -0.454
vn 0 -0.891 -0.454
vn -1 0 0
vn -1 0 0
vn -1 0 0
vn 1 0 0
vn 1 0 0
vn 1 0 0
vn 0 -0.7071 -0.7071
vn 0 -0.7071 -0.7071
vn 0 -0.7071 -0.7071
vn 0 -0.7071 -0.7071
vn -1 0 0
vn -1 0 0
vn -1 0 0
vn 1 0 0
vn 1 0 0
vn 1 0 0
vn 0 -0.454 -0.891
vn 0 -0.454 -0.891
vn 0 -0.454 -0.891
vn 0 -0.454 -0.891
vn -1 0 0
vn -1 0 0
vn -1 0 0
vn 1 0 0
vn 1 0 0
vn 1 0 0
vn 0 -0.1564 -0.9877
vn 0 -0.1564 -0.9877
vn 0 -0.1564 -0.9877
vn 0 -0.1564 -0.9877
vn -1 0 0
vn -1 0 0
vn -1 0 0
vn 1 0 0
vn 1 0 0
vn 1 0 0
vn 0 0.1564 -0.9877
vn 0 0.1564 -0.9877
vn 0 0.1564 -0.9877
vn 0 0.1564 -0.9877
vn -1 0 0
vn -1 0 0
vn -1 0 0
vn 1 0 0
vn 1 0 0
vn 1 0 0
vn 0 0.454 -0.891
vn 0 0.454 -0.891
vn 0 0.454 -0.891
vn 0 0.454 -0.891
vn -1 0 0
vn -1 0 0
vn -1 0 0
vn 1 0 0
vn 1 0 0
vn 1 0 0
vn 0 0.7071 -0.7071
vn 0 0.7071 -0.7071
vn 0 0.7071 -0.7071
vn 0 0.7071 -0.7071
vn -1 0 0
vn -1 0 0
vn -1 0 0
vn 1 0 0
vn 1 0 0
vn 1 0 0
vn 0 0.891 -0.454
vn 0 0.891 -0.454
vn 0 0.891 -0.454
vn 0 0.891 -0.454
vn -1 0 0
vn -1 0 0
vn -1 0 0
vn 1 0 0
vn 1 0 0
vn 1 0 0
vn 0 0.9877 -0.1564
vn 0 0.9877 -0.1564
vn 0 0.9877 -0.1564
vn 0 0.9877 -0.1564
vn -1 0 0
vn -1 0 0
vn -1 0 0
vn 1 0 0
vn 1 0 0
vn 1 0 0
f 1269//1269 1270//1270 1271//1271
f 1269//1269 1271//1271 1272//1272
f 1273//1273 1274//1274 1275//1275
f 1273//1273 1275//1275 1276//1276
f 1277//1277 1278//1278 1279//1279
f 1277//1277 1279//1279 1280//1280
f 1281//1281 1282//1282 1283//1283
f 1281//1281 1283//1283 1284//1284
f 1285//1285 1286//1286 1287//1287
f 1285//1285 1287//1287 1288//1288
f 1289//1289 1290//1290 1291//1291
f 1289//1289 1291//1291 1292//1292
f 1293//1293 1294//1294 1295//1295
f 1293//1293 1295//1295 1296//1296
f 1297//1297 1298//1298 1299//1299
f 1297//1297 1299//1299 1300//1300
f 1301//1301 1302//1302 1303//1303
f 1301//1301 1303//1303 1304//1304
f 1305//1305 1306//1306 1307//1307
f 1305//1305 1307//1307 1308//1308
f 1309//1309 1310//1310 1311//1311
f 1309//1309 1311//1311 1312//1312
f 1313//1313 1314//1314 1315//1315
f 1313//1313 1315//1315 1316//1316
f 1317//1317 1318//1318 1319//1319
f 1317//1317 1319//1319 1320//1320
f 1321//1321 1322//1322 1323//1323
f 1321//1321 1323//1323 1324//1324
f 1325//1325 1326//1326 1327//1327
f 1325//1325 1327//1327 1328//1328
f 1329//1329 1330//1330 1331//1331
f 1329//1329 1331//1331 1332//1332
f 1333//1333 1334//1334 1335//1335
f 1333//1333 1335//1335 1336//1336
f 1337//1337 1338//1338 1339//1339
f 1337//1337 1339//1339 1340//1340
f 1341//1341 1342//1342 1343//1343
f 1341//1341 1343//1343 1344//1344
f 1345//1345 1346//1346 1347//1347
f 1345//1345 1347//1347 1348//1348
f 1349//1349 1350//1350 1351//1351
f 1349//1349 1351//1351 1352//1352
f 1353//1353 1354//1354 1355//1355
f 1356//1356 1357//1357 1358//1358
f 1359//1359 1360//1360 1361//1361
f 1359//1359 1361//1361 1362//1362
f 1363//1363 1364//1364 1365//1365
f 1366//1366 1367//1367 1368//1368
f 1369//1369 1370//1370 1371//1371
f 1369//1369 1371//1371 1372//1372
f 1373//1373 1374//1374 1375//1375
f 1376//1376 1377//1377 1378//1378
f 1379//1379 1380//1380 1381//1381
f 1379//1379 1381//1381 1382//1382
f 1383//1383 1384//1384 1385//1385
f 1386//1386 1387//1387 1388//1388
f 1389//1389 1390//1390 1391//1391
f 1389//1389 1391//1391 1392//1392
f 1393//1393 1394//1394 1395//1395
f 1396//1396 1397//1397 1398//1398
f 1399//1399 1400//1400 1401//1401
f 1399//1399 1401//1401 1402//1402
f 1403//1403 1404//1404 1405//1405
f 1406//1406 1407//1407 1408//1408
f 1409//1409 1410//1410 1411//1411
f 1409//1409 1411//1411 1412//1412
f 1413//1413 1414//1414 1415//1415
f 1416//1416 1417//1417 1418//1418
f 1419//1419 1420//1420 1421//1421
f 1419//1419 1421//1421 1422//1422
f 1423//1423 1424//1424 1425//1425
f 1426//1426 1427//1427 1428//1428
f 1429//1429 1430//1430 1431//1431
f 1429//1429 1431//1431 1432//1432
f 1433//1433 1434//1434 1435//1435
f 1436//1436 1437//1437 1438//1438
f 1439//1439 1440//1440 1441//1441
f 1439//1439 1441//1441 1442//1442
f 1443//1443 1444//1444 1445//1445
f 1446//1446 1447//1447 1448//1448
f 1449//1449 1450//1450 1451//1451
f 1449//1449 1451//1451 1452//1452
f 1453//1453 1454//1454 1455//1455
f 1456//1456 1457//1457 1458//1458
f 1459//1459 1460//1460 1461//1461
f 1459//1459 1461//1461 1462//1462
f 1463//1463 1464//1464 1465//1465
f 1466//1466 1467//1467 1468//1468
f 1469//1469 1470//1470 1471//1471
f 1469//1469 1471//1471 1472//1472
f 1473//1473 1474//1474 1475//1475
f 1476//1476 1477//1477 1478//1478
f 1479//1479 1480//1480 1481//1481
f 1479//1479 1481//1481 1482//1482
f 1483//1483 1484//1484 1485//1485
f 1486//1486 1487//1487 1488//1488
f 1489//1489 1490//1490 1491//1491
f 1489//1489 1491//1491 1492//1492
f 1493//1493 1494//1494 1495//1495
f 1496//1496 1497//1497 1498//1498
f 1499//1499 1500//1500 1501//1501
f 1499//1499 1501//1501 1502//1502
f 1503//1503 1504//1504 1505//1505
f 1506//1506 1507//1507 1508//1508
f 1509//1509 1510//1510 1511//1511
f 1509//1509 1511//1511 1512//1512
f 1513//1513 1514//1514 1515//1515
f 1516//1516 1517//1517 1518//1518
f 1519//1519 1520//1520 1521//1521
f 1519//1519 1521//1521 1522//1522
f 1523//1523 1524//1524 1525//1525
f 1526//1526 1527//1527 1528//1528
f 1529//1529 1530//1530 1531//1531
f 1529//1529 1531//1531 1532//1532
f 1533//1533 1534//1534 1535//1535
f 1536//1536 1537//1537 1538//1538
f 1539//1539 1540//1540 1541//1541
f 1539//1539 1541//1541 1542//1542
f 1543//1543 1544//1544 1545//1545
f 1546//1546 1547//1547 1548//1548
g headlight_L
usemtl headlight
v -0.34 0.78 2.05
v 0.34 0.78 2.05
v 0.34 0.91 2.05
v -0.34 0.91 2.05
vn 0 0 1
vn 0 0 1
vn 0 0 1
vn 0 0 1
f 1549//1549 1550//1550 1551//1551
f 1549//1549 1551//1551 1552//1552
g headlight_R
usemtl headlight
v -0.34 0.78 2.05
v 0.34 0.78 2.05
v 0.34 0.91 2.05
v -0.34 0.91 2.05
vn 0 0 1
vn 0 0 1
vn 0 0 1
vn 0 0 1
f 1553//1553 1554//1554 1555//1555
f 1553//1553 1555//1555 1556//1556
g taillight_L
usemtl taillight
v -0.34 0.78 -2.15
v 0.34 0.78 -2.15
v 0.34 0.91 -2.15
v -0.34 0.91 -2.15
vn 0 0 1
vn 0 0 1
vn 0 0 1
vn 0 0 1
f 1557//1557 1558//1558 1559//1559
f 1557//1557 1559//1559 1560//1560
g taillight_R
usemtl taillight
v -0.34 0.78 -2.15
v 0.34 0.78 -2.15
v 0.34 0.91 -2.15
v -0.34 0.91 -2.15
vn 0 0 1
vn 0 0 1
vn 0 0 1
vn 0 0 1
f 1561//1561 1562//1562 1563//1563
f 1561//1561 1563//1563 1564//1564
g interior
usemtl interior
v -0.55 0.72 0.55
v 0.55 0.72 0.55
v 0.55 0.78 0.1
v -0.55 0.78 0.1
v -0.3 0.3 -0.6
v 0.3 0.3 -0.6
v 0.3 0.72 -0.6
v -0.3 0.72 -0.6
vn 0 0.9912 0.1322
vn 0 0.9912 0.1322
vn 0 0.9912 0.1322
vn 0 0.9912 0.1322
vn 0 0 1
vn 0 0 1
vn 0 0 1
vn 0 0 1
f 1565//1565 1566//1566 1567//1567
f 1565//1565 1567//1567 1568//1568
f 1569//1569 1570//1570 1571//1571
f 1569//1569 1571//1571 1572//1572
